<svg width="125" height="139" viewBox="0 0 125 139" fill="none" xmlns="http://www.w3.org/2000/svg">
<path d="M111.111 41.6667V34.7222H97.2222V13.8889H13.8889V111.111H48.6111V138.889H71.1806H69.4444C65.7609 138.889 62.2282 137.426 59.6235 134.821C57.0188 132.216 55.5556 128.684 55.5556 125V55.5556C55.5556 51.872 57.0188 48.3393 59.6235 45.7346C62.2282 43.13 65.7609 41.6667 69.4444 41.6667H111.111ZM71.1806 138.889H13.8889C10.2053 138.889 6.67263 137.426 4.06796 134.821C1.46329 132.216 0 128.684 0 125V13.8889C0 6.25 6.25 0 13.8889 0H97.2222C100.906 0 104.438 1.46329 107.043 4.06796C109.648 6.67263 111.111 10.2053 111.111 13.8889V41.6667C114.795 41.6667 118.327 43.13 120.932 45.7346C123.537 48.3393 125 51.872 125 55.5556V125C125 128.684 123.537 132.216 120.932 134.821C118.327 137.426 114.795 138.889 111.111 138.889H71.1806ZM69.4444 55.5556V111.111H111.111V55.5556H69.4444ZM90.2778 131.944C92.1196 131.944 93.8859 131.213 95.1882 129.91C96.4906 128.608 97.2222 126.842 97.2222 125C97.2222 123.158 96.4906 121.392 95.1882 120.09C93.8859 118.787 92.1196 118.056 90.2778 118.056C88.436 118.056 86.6697 118.787 85.3673 120.09C84.065 121.392 83.3333 123.158 83.3333 125C83.3333 126.842 84.065 128.608 85.3673 129.91C86.6697 131.213 88.436 131.944 90.2778 131.944Z" fill="#0054F6"/>
</svg>
