<svg width="101" height="37" viewBox="0 0 101 37" fill="none" xmlns="http://www.w3.org/2000/svg">
<rect width="101" height="37" rx="18.5" fill="#0054F6"/>
<path d="M22 25C21.1716 25 20.5 25.6716 20.5 26.5C20.5 27.3284 21.1716 28 22 28V25ZM64.5 26.5V28H65.1358L65.5779 27.5431L64.5 26.5ZM80.9998 10.9754C80.9862 10.1471 80.3037 9.48662 79.4754 9.5002L65.9772 9.72148C65.1489 9.73506 64.4884 10.4176 64.502 11.2459C64.5156 12.0742 65.1981 12.7347 66.0264 12.7211L78.0248 12.5244L78.2215 24.5228C78.2351 25.3511 78.9176 26.0116 79.7459 25.998C80.5742 25.9844 81.2347 25.3019 81.2211 24.4736L80.9998 10.9754ZM22 28H64.5V25H22V28ZM65.5779 27.5431L80.5779 12.0431L78.4221 9.95687L63.4221 25.4569L65.5779 27.5431Z" fill="#F5F1F8"/>
</svg>
