<svg width="196" height="230" viewBox="0 0 196 230" fill="none" xmlns="http://www.w3.org/2000/svg">
<path fill-rule="evenodd" clip-rule="evenodd" d="M116.797 0.0781218C115.877 0.309616 115.077 0.945697 114.6 1.82424L114.269 2.43289L114.221 6.8588C114.194 9.29305 114.159 17.4324 114.143 24.9463C114.121 35.4296 114.087 38.6236 113.998 38.6754C113.935 38.7125 104.839 43.956 93.786 50.3276L73.6891 61.9123L73.6409 84.8759L73.5928 107.839L54.1706 119.033L34.7484 130.227V155.558V180.889L56.5321 193.452C69.6125 200.996 78.4121 206.015 78.5567 206.014C78.7012 206.014 87.5203 200.984 100.582 193.451L122.366 180.887L122.414 157.925L122.462 134.963L141.884 123.769L161.306 112.575L161.355 89.3546L161.403 66.134L176.873 57.027C187.462 50.7932 192.481 47.7869 192.783 47.4984C193.025 47.2665 193.348 46.8171 193.502 46.4996C193.745 45.9964 193.781 45.8105 193.784 45.0517C193.788 44.2333 193.767 44.1365 193.421 43.4387C192.461 41.4975 190.513 40.6794 188.771 41.4856C188.509 41.6069 181.406 45.7613 172.988 50.7176C164.569 55.674 157.644 59.7292 157.596 59.7292C157.496 59.7292 121.939 39.2576 121.765 39.1003C121.674 39.0169 121.634 34.9755 121.588 20.9055C121.554 10.7076 121.49 2.67083 121.441 2.481C121.205 1.56464 120.415 0.67408 119.466 0.254389C118.929 0.0170251 117.433 -0.0817881 116.797 0.0781218ZM16.5537 55.8172L0 65.3577L0.0243853 84.4511L0.0486764 103.544L16.531 113.048C25.5963 118.275 33.0568 122.551 33.1098 122.551C33.1628 122.551 40.6232 118.274 49.6885 113.046L66.1709 103.541L66.1952 84.4496L66.2194 65.3578L49.8668 55.9287C40.873 50.7427 33.4227 46.4494 33.3107 46.3881C33.1298 46.2891 31.2756 47.3324 16.5537 55.8172ZM134.906 57.2534L152.149 67.1894V87.2471V107.304L134.823 117.29L117.497 127.276L100.171 117.288L82.846 107.302V87.2477V67.1934L100.052 57.2644C109.514 51.8035 117.348 47.3314 117.459 47.3264C117.571 47.3214 125.422 51.7886 134.906 57.2534ZM46.6041 61.8223L59.4237 69.2156L59.4481 84.4254L59.4725 99.6349L46.3041 107.223C39.0614 111.397 33.1156 114.807 33.091 114.801C33.0664 114.796 27.129 111.38 19.8967 107.212L6.74707 99.633L6.77145 84.425L6.79584 69.2167L19.9436 61.6402L33.0912 54.0636L33.4379 54.2463C33.6285 54.3469 39.5533 57.7561 46.6041 61.8223ZM100.582 62.7966C100.186 62.9782 88.1566 70.0965 87.7014 70.4186C87.1415 70.8147 87.1341 70.8793 87.1471 75.2825C87.1537 77.4971 87.1863 81.0054 87.2194 83.0786C87.2772 86.6861 87.2884 86.8597 87.4786 87.1137C87.8856 87.6574 88.1489 87.776 88.9496 87.776C89.7585 87.776 90.1087 87.6347 90.4607 87.1665C90.6501 86.9145 90.6529 86.783 90.6251 79.6457L90.5969 72.3815L96.3919 68.9658C100.216 66.7122 102.267 65.449 102.42 65.2528C102.793 64.7773 102.817 64.21 102.492 63.5778C102.279 63.1638 102.126 63.0015 101.79 62.8321C101.272 62.5714 101.085 62.5659 100.582 62.7966ZM95.9066 125.524L113.209 135.502V155.561V175.62L95.8825 185.605L78.5568 195.59L61.231 185.604L43.9052 175.618V155.561V135.504L61.2069 125.525C70.7228 120.036 78.5302 115.546 78.5567 115.545C78.5832 115.545 86.3907 120.035 95.9066 125.524ZM146.103 132.024L129.55 141.561L129.573 160.645L129.595 179.729L146.029 189.204C155.067 194.415 162.509 198.698 162.566 198.723C162.623 198.747 170.106 194.482 179.193 189.244L195.717 179.721L195.737 160.64L195.757 141.561L179.592 132.25C170.7 127.128 163.253 122.837 163.041 122.713L162.656 122.487L146.103 132.024ZM175.894 137.856L189.011 145.409L188.99 160.647L188.97 175.886L175.813 183.467L162.656 191.05L162.174 190.773C161.909 190.621 155.988 187.207 149.017 183.187L136.342 175.879L136.322 160.644L136.3 145.409L149.43 137.839C156.651 133.677 162.608 130.278 162.667 130.286C162.726 130.296 168.678 133.702 175.894 137.856ZM105.908 156.047C105.688 156.162 105.472 156.384 105.354 156.616C105.164 156.986 105.16 157.172 105.16 164.1V171.206L99.2671 174.616C94.8056 177.198 93.331 178.096 93.1951 178.315C92.9385 178.727 92.8712 179.203 93.0129 179.605C93.3059 180.437 93.9662 180.93 94.6605 180.837C94.892 180.806 97.2083 179.519 101.459 177.059C105.005 175.007 107.989 173.26 108.09 173.176C108.19 173.091 108.352 172.845 108.449 172.629C108.615 172.258 108.625 171.791 108.628 164.618C108.632 157.155 108.628 156.992 108.437 156.617C108.17 156.094 107.664 155.847 106.875 155.853C106.463 155.855 106.152 155.918 105.908 156.047ZM34.4421 200.456C34.4763 202.937 34.5516 210.206 34.6096 216.609C34.6676 223.012 34.7442 228.644 34.7799 229.125L34.8448 230L49.3816 221.417C57.3769 216.696 63.9575 212.795 64.0051 212.747C64.0564 212.696 63.3156 212.224 62.1915 211.591C61.1464 211.003 54.5658 207.298 47.568 203.358C40.5702 199.417 34.7402 196.138 34.6124 196.07L34.38 195.946L34.4421 200.456Z" fill="#05050D"/>
</svg>
