<svg width="30" height="30" viewBox="0 0 30 30" fill="none" xmlns="http://www.w3.org/2000/svg">
<path fill-rule="evenodd" clip-rule="evenodd" d="M15 30C23.2843 30 30 23.2843 30 15C30 6.71573 23.2843 0 15 0C6.71573 0 0 6.71573 0 15C0 23.2843 6.71573 30 15 30ZM13.0618 10.6414C12.6961 10.5357 12.2959 10.5 11.8632 10.5H7.5V20.2528H11.9634C12.3629 20.2528 12.7625 20.1821 13.162 20.0757C13.5411 19.9759 13.9014 19.8088 14.2272 19.5814C14.5272 19.3693 14.7941 19.0514 14.96 18.6978C15.1266 18.3443 15.2268 17.9207 15.2268 17.4257C15.2268 16.825 15.0602 16.295 14.7941 15.8714C14.5272 15.4471 14.0945 15.1293 13.5284 14.9521C13.9279 14.74 14.2611 14.4578 14.4609 14.1393C14.6938 13.8214 14.7941 13.3979 14.7941 12.9029C14.7941 12.4793 14.727 12.09 14.5936 11.7721C14.4609 11.4543 14.2611 11.2071 13.9943 11.03C13.7282 10.8536 13.4282 10.7121 13.0618 10.6414ZM12.4957 14.175C12.2627 14.3514 11.9627 14.4571 11.5963 14.4571L11.597 14.4578H9.53158V12.1607H11.4629C11.6634 12.1607 11.8293 12.1607 11.9959 12.1964C12.1625 12.2314 12.2959 12.3021 12.4293 12.3729C12.562 12.4786 12.6623 12.585 12.7286 12.7264C12.795 12.8679 12.8288 13.0793 12.8288 13.2914C12.8288 13.68 12.7286 13.9986 12.4957 14.175ZM12.2627 18.5564C12.0961 18.5914 11.8963 18.6271 11.6966 18.6271L9.53158 18.6278V15.9064H11.7298C12.1625 15.9064 12.5288 16.0121 12.7957 16.2243C13.0618 16.4714 13.1952 16.825 13.1952 17.32C13.1952 17.5671 13.1282 17.7793 13.0618 17.9557C12.9778 18.1085 12.8643 18.2409 12.7286 18.3443C12.5959 18.4507 12.4293 18.5207 12.2627 18.5564ZM19.3231 19.0157C18.7902 19.0157 18.3906 18.8743 18.1245 18.5914V18.5921C17.8577 18.3093 17.6579 17.7793 17.6579 17.2136H22.487C22.5202 16.6486 22.487 16.1536 22.4206 15.6593C22.2879 15.1643 22.0874 14.705 21.8206 14.3164C21.5545 13.8921 21.222 13.6093 20.7886 13.3621C20.3559 13.115 19.8561 13.0086 19.2899 13.0086C18.8107 13.0068 18.3356 13.1029 17.8909 13.2914C17.4915 13.4757 17.1298 13.7399 16.8256 14.0693C16.5238 14.4202 16.2865 14.8274 16.1261 15.27C15.9595 15.73 15.8925 16.2243 15.8925 16.7543C15.8925 17.32 15.9595 17.8143 16.1261 18.2736C16.2539 18.7141 16.4825 19.1147 16.7918 19.44C17.0809 19.7877 17.4471 20.0547 17.8577 20.2171C18.314 20.4056 18.7999 20.5016 19.2899 20.5C20.0559 20.5 20.6884 20.2878 21.222 19.935C21.7543 19.5457 22.1538 18.945 22.4206 18.0978H20.7886C20.7222 18.3093 20.5556 18.5214 20.2888 18.7336C20.0227 18.91 19.6895 19.0157 19.3231 19.0157ZM19.1897 14.4928C19.6231 14.4928 19.9895 14.6343 20.2224 14.8814C20.4554 15.1293 20.622 15.4821 20.6884 16.0121H17.6911C17.6911 15.8958 17.7138 15.779 17.7404 15.6419C17.746 15.6132 17.7517 15.5836 17.7575 15.5528C17.7869 15.3672 17.8683 15.1951 17.9911 15.0586L17.9938 15.0557C18.1263 14.9152 18.2586 14.775 18.457 14.67C18.6568 14.5643 18.8904 14.4928 19.1897 14.4928ZM21.0215 11.1714H17.2922V12.1257H21.0215V11.1714Z" fill="#0054F6"/>
</svg>
