<svg width="125" height="125" viewBox="0 0 125 125" fill="none" xmlns="http://www.w3.org/2000/svg">
<path d="M107.143 80.3574H116.071V116.072H80.3571V107.143H71.4285V125H125V71.4288H107.143V80.3574Z" fill="#0054F6"/>
<path d="M44.6429 116.072H8.92858V80.3574H17.8572V71.4288H0V125H53.5715V107.143H44.6429V116.072Z" fill="#0054F6"/>
<path d="M17.8572 44.6429H8.92858V8.92858H44.6429V17.8572H53.5715V0H0V53.5715H17.8572V44.6429Z" fill="#0054F6"/>
<path d="M71.4285 0V17.8572H80.3571V8.92858H116.071V44.6429H107.143V53.5715H125V0H71.4285Z" fill="#0054F6"/>
<path d="M31.2498 31.2502H58.0355V58.036H31.2498V31.2502Z" fill="#0054F6"/>
<path d="M66.9639 31.2502H93.7496V58.036H66.9639V31.2502Z" fill="#0054F6"/>
<path d="M31.2498 66.9646H58.0355V93.7503H31.2498V66.9646Z" fill="#0054F6"/>
<path d="M66.9639 66.9646H93.7496V93.7503H66.9639V66.9646Z" fill="#0054F6"/>
</svg>
