<svg width="315" height="314" viewBox="0 0 315 314" fill="none" xmlns="http://www.w3.org/2000/svg">
<path d="M12.8336 128.772L12.6953 130.881C12.08 130.973 11.5324 131.162 11.0524 131.449C10.5728 131.73 10.1624 132.083 9.82136 132.508C9.47501 132.928 9.20492 133.399 9.0111 133.924C8.81727 134.448 8.70139 134.999 8.66345 135.578C8.59426 136.632 8.79824 137.602 9.27537 138.487C9.75288 139.367 10.4942 140.087 11.4993 140.648C12.5048 141.204 13.7621 141.522 15.2713 141.604C16.7804 141.687 18.0705 141.506 19.1414 141.064C20.2128 140.616 21.043 139.981 21.6321 139.16C22.2216 138.333 22.5509 137.392 22.6201 136.337C22.658 135.759 22.615 135.199 22.4911 134.657C22.3673 134.116 22.1636 133.618 21.8802 133.165C21.5915 132.705 21.2274 132.31 20.788 131.979C20.3432 131.642 19.8242 131.394 19.231 131.237L19.3694 129.128C20.2497 129.335 21.0279 129.667 21.7038 130.125C22.3798 130.583 22.9441 131.137 23.3968 131.788C23.8438 132.438 24.1695 133.158 24.3738 133.949C24.5785 134.734 24.6521 135.566 24.5944 136.445C24.497 137.93 24.0472 139.231 23.2451 140.349C22.443 141.466 21.3508 142.319 19.9683 142.91C18.5859 143.5 16.9756 143.746 15.1374 143.645C13.2992 143.545 11.7324 143.127 10.437 142.391C9.14156 141.655 8.1687 140.689 7.51839 139.493C6.86807 138.296 6.59164 136.956 6.6891 135.47C6.74676 134.591 6.92853 133.773 7.23442 133.016C7.54069 132.253 7.96107 131.574 8.49558 130.977C9.02441 130.38 9.65434 129.891 10.3854 129.509C11.1107 129.128 11.9268 128.882 12.8336 128.772Z" fill="#F5F1F8"/>
<path d="M28.0576 113.353L11.2112 108.786L11.8678 106.777L26.9045 110.853L29.425 103.141L31.2347 103.632L28.0576 113.353Z" fill="#F5F1F8"/>
<path d="M22.8082 80.8914L38.6695 88.177L37.6456 90.0261L21.7843 82.7405L22.8082 80.8914Z" fill="#F5F1F8"/>
<path d="M46.95 56.9282L45.5676 58.5271C44.9918 58.2673 44.4148 58.1214 43.8364 58.0896C43.2617 58.0534 42.7025 58.1119 42.1587 58.265C41.614 58.4105 41.1024 58.6389 40.6238 58.9502C40.1452 59.2614 39.7163 59.6363 39.3373 60.0747C38.646 60.8741 38.2368 61.7539 38.1097 62.7142C37.9862 63.6702 38.1816 64.6425 38.6957 65.631C39.2136 66.6153 40.0866 67.5479 41.3147 68.4288C42.5428 69.3097 43.7428 69.864 44.9147 70.0918C46.0904 70.3154 47.1739 70.2604 48.1653 69.927C49.1605 69.5893 50.0037 69.0208 50.6949 68.2213C51.074 67.783 51.3735 67.3154 51.5936 66.8187C51.8136 66.3219 51.9398 65.817 51.972 65.3039C52.0033 64.7832 51.9323 64.2727 51.759 63.7724C51.5848 63.2644 51.2939 62.7877 50.8863 62.3421L52.2687 60.7432C52.8895 61.3835 53.3487 62.068 53.6462 62.7967C53.9437 63.5254 54.0889 64.2702 54.0817 65.0311C54.07 65.7887 53.9135 66.5364 53.6121 67.2742C53.3144 68.0078 52.8776 68.7076 52.3016 69.3738C51.3279 70.4999 50.1666 71.2893 48.8175 71.7422C47.4684 72.1951 46.0316 72.2822 44.5072 72.0035C42.9829 71.7248 41.4727 71.049 39.9768 69.976C38.4809 68.9031 37.4056 67.7244 36.7508 66.44C36.096 65.1555 35.8522 63.863 36.0194 62.5623C36.1865 61.2616 36.7569 60.0483 37.7306 58.9222C38.3066 58.256 38.9512 57.7052 39.6644 57.2697C40.3813 56.8299 41.1449 56.5177 41.9554 56.333C42.7612 56.145 43.5879 56.0973 44.4354 56.1899C45.2783 56.2792 46.1165 56.5253 46.95 56.9282Z" fill="#F5F1F8"/>
<path d="M69.8121 52.3105L58.5015 39.0165L60.2283 37.7977L65.8395 44.3928L66.0066 44.2749L66.8015 33.1584L69.0575 31.5661L68.1723 41.7905L80.3681 44.8601L78.2792 46.3345L68.0638 43.654L67.8718 46.7816L71.539 51.0917L69.8121 52.3105Z" fill="#F5F1F8"/>
<path d="M114.136 29.5498L111.99 30.0995L113.05 11.8315L115.164 11.2903L126.521 26.3785L124.374 26.9281L114.988 14.1825L114.855 14.2164L114.136 29.5498ZM112.918 22.832L121.571 20.6163L122.124 22.4078L113.471 24.6235L112.918 22.832Z" fill="#F5F1F8"/>
<path d="M157.078 5.87422L157.504 23.3236L155.459 23.365L145.615 9.857L145.444 9.86045L145.779 23.5609L143.666 23.6037L143.24 6.15435L145.285 6.11295L155.163 19.6543L155.334 19.6509L154.999 5.9163L157.078 5.87422Z" fill="#F5F1F8"/>
<path d="M183.745 25.7009L178.484 24.5434L182.959 7.67222L188.453 8.88098C190.106 9.24483 191.432 9.89393 192.429 10.8283C193.428 11.7571 194.074 12.9194 194.367 14.315C194.662 15.7051 194.578 17.2734 194.115 19.0198C193.649 20.7773 192.931 22.2207 191.962 23.3501C190.994 24.4741 189.815 25.2435 188.425 25.6583C187.036 26.0676 185.476 26.0818 183.745 25.7009ZM181.029 23.1853L184.092 23.8592C185.502 24.1694 186.741 24.1573 187.811 23.823C188.88 23.4887 189.774 22.8746 190.493 21.9806C191.212 21.0867 191.753 19.9533 192.117 18.5803C192.478 17.2183 192.565 15.9963 192.376 14.9144C192.189 13.8269 191.718 12.9213 190.965 12.1975C190.213 11.4682 189.171 10.957 187.839 10.664L184.543 9.93876L181.029 23.1853Z" fill="#F5F1F8"/>
<path d="M227.591 40.9567L238.597 27.4094L240.35 28.5907L235.449 34.6234L243.167 39.8248L248.068 33.792L249.821 34.9733L238.815 48.5205L237.062 47.3393L241.984 41.2801L234.267 36.0787L229.344 42.138L227.591 40.9567Z" fill="#F5F1F8"/>
<path d="M270.391 65.7848C268.903 66.8685 267.398 67.5553 265.875 67.8452C264.353 68.135 262.915 68.0585 261.562 67.6156C260.21 67.1727 259.043 66.3919 258.06 65.2732C257.078 64.1545 256.499 62.9455 256.322 61.6463C256.145 60.3471 256.379 59.0531 257.025 57.7641C257.67 56.4751 258.737 55.2887 260.225 54.205C261.713 53.1212 263.218 52.4345 264.741 52.1446C266.263 51.8548 267.701 51.9313 269.053 52.3742C270.406 52.8171 271.573 53.5979 272.556 54.7166C273.538 55.8353 274.117 57.0443 274.294 58.3435C274.471 59.6427 274.236 60.9367 273.591 62.2257C272.946 63.5147 271.879 64.701 270.391 65.7848ZM269.042 64.2477C270.263 63.3579 271.128 62.417 271.634 61.4248C272.145 60.437 272.333 59.4634 272.199 58.5043C272.068 57.5494 271.654 56.6748 270.957 55.8806C270.26 55.0865 269.412 54.5242 268.415 54.1939C267.421 53.8678 266.337 53.8208 265.163 54.053C263.992 54.2893 262.796 54.8524 261.574 55.7421C260.353 56.6319 259.487 57.5707 258.976 58.5586C258.469 59.5507 258.281 60.5242 258.411 61.4791C258.546 62.4383 258.961 63.315 259.659 64.1091C260.356 64.9033 261.202 65.4635 262.196 65.7895C263.193 66.1198 264.277 66.1668 265.448 65.9304C266.622 65.6983 267.82 65.1374 269.042 64.2477Z" fill="#F5F1F8"/>
<path d="M274.217 85.8746L290.275 79.0342L291.241 80.9144L276.907 87.02L280.614 94.2377L278.889 94.9725L274.217 85.8746Z" fill="#F5F1F8"/>
<path d="M286.122 114.306L284.907 109.058L302.048 105.766L303.317 111.246C303.699 112.895 303.683 114.373 303.268 115.678C302.859 116.982 302.088 118.07 300.955 118.941C299.828 119.811 298.377 120.416 296.603 120.757C294.817 121.1 293.207 121.08 291.772 120.696C290.342 120.312 289.142 119.582 288.171 118.509C287.205 117.434 286.522 116.033 286.122 114.306ZM287.225 110.764L287.933 113.819C288.258 115.225 288.801 116.338 289.562 117.157C290.323 117.977 291.261 118.516 292.376 118.776C293.491 119.036 294.746 119.032 296.141 118.764C297.525 118.498 298.664 118.045 299.559 117.405C300.46 116.764 301.075 115.946 301.404 114.952C301.739 113.957 301.753 112.795 301.445 111.467L300.684 108.179L287.225 110.764Z" fill="#F5F1F8"/>
<path d="M302.834 184.622L302.971 182.513C303.586 182.422 304.134 182.233 304.614 181.946C305.093 181.665 305.503 181.312 305.844 180.887C306.19 180.468 306.46 179.996 306.654 179.472C306.847 178.947 306.963 178.396 307.001 177.818C307.069 176.763 306.865 175.793 306.388 174.908C305.91 174.028 305.168 173.308 304.163 172.746C303.157 172.19 301.9 171.871 300.391 171.788C298.882 171.706 297.592 171.885 296.521 172.327C295.45 172.775 294.62 173.41 294.031 174.231C293.442 175.058 293.113 175.999 293.044 177.053C293.007 177.632 293.05 178.192 293.174 178.733C293.298 179.275 293.502 179.773 293.785 180.226C294.074 180.686 294.439 181.081 294.878 181.413C295.323 181.75 295.842 181.997 296.435 182.155L296.298 184.264C295.417 184.057 294.639 183.724 293.963 183.266C293.287 182.808 292.722 182.253 292.27 181.603C291.822 180.952 291.496 180.232 291.292 179.441C291.087 178.656 291.013 177.824 291.07 176.945C291.167 175.46 291.616 174.158 292.418 173.042C293.219 171.925 294.311 171.071 295.693 170.481C297.075 169.891 298.686 169.647 300.524 169.747C302.362 169.848 303.929 170.267 305.224 171.003C306.52 171.74 307.493 172.707 308.144 173.903C308.795 175.099 309.072 176.44 308.975 177.926C308.918 178.805 308.736 179.623 308.431 180.38C308.125 181.143 307.705 181.822 307.17 182.419C306.642 183.016 306.012 183.505 305.281 183.886C304.556 184.267 303.74 184.513 302.834 184.622Z" fill="#F5F1F8"/>
<path d="M287.643 200.012L304.482 204.607L303.829 206.617L288.799 202.516L286.294 210.233L284.485 209.739L287.643 200.012Z" fill="#F5F1F8"/>
<path d="M292.962 232.501L277.119 225.177L278.138 223.325L293.981 230.649L292.962 232.501Z" fill="#F5F1F8"/>
<path d="M268.941 256.474L270.319 254.871C270.893 255.132 271.469 255.279 272.046 255.311C272.619 255.348 273.176 255.289 273.718 255.136C274.261 254.99 274.772 254.762 275.249 254.45C275.726 254.138 276.153 253.762 276.531 253.322C277.219 252.521 277.627 251.638 277.753 250.675C277.875 249.716 277.679 248.74 277.166 247.748C276.649 246.76 275.777 245.824 274.552 244.939C273.327 244.054 272.129 243.497 270.961 243.268C269.788 243.043 268.708 243.097 267.719 243.431C266.727 243.769 265.887 244.339 265.198 245.141C264.82 245.58 264.522 246.049 264.303 246.548C264.084 247.046 263.958 247.552 263.927 248.067C263.896 248.589 263.967 249.102 264.14 249.604C264.314 250.114 264.605 250.592 265.012 251.039L263.634 252.643C263.015 252 262.556 251.313 262.259 250.582C261.962 249.85 261.817 249.103 261.823 248.339C261.834 247.579 261.99 246.829 262.29 246.089C262.586 245.353 263.021 244.651 263.595 243.983C264.565 242.854 265.722 242.063 267.067 241.609C268.412 241.156 269.845 241.069 271.365 241.35C272.886 241.631 274.392 242.31 275.885 243.387C277.377 244.465 278.451 245.648 279.105 246.937C279.759 248.227 280.003 249.524 279.837 250.828C279.672 252.133 279.104 253.35 278.134 254.48C277.56 255.148 276.917 255.7 276.207 256.136C275.492 256.577 274.731 256.89 273.923 257.075C273.119 257.263 272.295 257.31 271.45 257.216C270.609 257.126 269.773 256.879 268.941 256.474Z" fill="#F5F1F8"/>
<path d="M246.243 261.049L257.511 274.379L255.788 275.603L250.198 268.99L250.031 269.108L249.229 280.262L246.978 281.861L247.869 271.603L235.709 268.531L237.794 267.051L247.979 269.733L248.173 266.595L244.52 262.273L246.243 261.049Z" fill="#F5F1F8"/>
<path d="M202.232 283.841L204.378 283.288L203.29 301.575L201.177 302.12L189.853 287.032L191.998 286.479L201.357 299.224L201.49 299.19L202.232 283.841ZM203.439 290.564L194.79 292.793L194.24 291L202.889 288.771L203.439 290.564Z" fill="#F5F1F8"/>
<path d="M159.485 307.525L159.062 290.076L161.107 290.034L170.948 303.541L171.119 303.537L170.786 289.837L172.9 289.794L173.323 307.243L171.278 307.285L161.401 293.745L161.231 293.748L161.564 307.483L159.485 307.525Z" fill="#F5F1F8"/>
<path d="M133.049 287.68L138.307 288.845L133.86 305.723L128.368 304.507C126.714 304.141 125.389 303.489 124.391 302.553C123.392 301.622 122.744 300.459 122.449 299.062C122.152 297.67 122.234 296.101 122.694 294.354C123.158 292.595 123.873 291.152 124.84 290.023C125.805 288.899 126.982 288.13 128.371 287.717C129.759 287.309 131.318 287.297 133.049 287.68ZM135.766 290.201L132.704 289.523C131.295 289.21 130.056 289.221 128.988 289.554C127.92 289.888 127.027 290.501 126.31 291.395C125.593 292.289 125.053 293.422 124.692 294.796C124.332 296.158 124.248 297.381 124.438 298.464C124.627 299.553 125.098 300.459 125.852 301.185C126.605 301.915 127.647 302.428 128.979 302.723L132.274 303.453L135.766 290.201Z" fill="#F5F1F8"/>
<path d="M89.5582 272.388L78.595 285.97L76.8458 284.784L81.7278 278.736L74.0257 273.511L69.1437 279.56L67.3945 278.373L78.3577 264.791L80.1069 265.978L75.2034 272.052L82.9055 277.277L87.809 271.202L89.5582 272.388Z" fill="#F5F1F8"/>
<path d="M47.0184 247.546C48.5032 246.457 50.0048 245.767 51.5233 245.476C53.0418 245.184 54.4752 245.26 55.8237 245.703C57.1722 246.147 58.3357 246.93 59.3142 248.051C60.2928 249.173 60.8697 250.386 61.0451 251.689C61.2204 252.993 60.9858 254.291 60.3413 255.585C59.6968 256.879 58.6322 258.07 57.1474 259.158C55.6627 260.246 54.161 260.936 52.6426 261.228C51.1241 261.52 49.6906 261.444 48.3421 261.001C46.9937 260.557 45.8301 259.774 44.8516 258.652C43.8731 257.531 43.2961 256.318 43.1208 255.015C42.9454 253.711 43.18 252.413 43.8245 251.119C44.4691 249.825 45.5337 248.634 47.0184 247.546ZM48.363 249.087C47.144 249.981 46.2814 250.925 45.7752 251.921C45.2653 252.913 45.0769 253.89 45.2101 254.852C45.3396 255.81 45.7517 256.687 46.4463 257.484C47.141 258.28 47.9857 258.844 48.9805 259.174C49.9715 259.501 51.0525 259.547 52.2235 259.314C53.3908 259.076 54.5839 258.51 55.8029 257.617C57.0218 256.723 57.8863 255.781 58.3962 254.789C58.9024 253.793 59.0908 252.816 58.9613 251.858C58.8281 250.896 58.4142 250.017 57.7195 249.22C57.0248 248.424 56.182 247.862 55.191 247.536C54.1963 247.205 53.1153 247.159 51.948 247.397C50.777 247.63 49.582 248.194 48.363 249.087Z" fill="#F5F1F8"/>
<path d="M43.3153 227.471L27.273 234.348L26.3124 232.466L40.6315 226.327L36.9442 219.099L38.6675 218.361L43.3153 227.471Z" fill="#F5F1F8"/>
<path d="M31.5109 199.064L32.7184 204.313L15.5812 207.626L14.3201 202.144C13.9405 200.494 13.9588 199.016 14.3749 197.709C14.7855 196.404 15.5575 195.315 16.691 194.442C17.819 193.571 19.27 192.963 21.044 192.621C22.8291 192.275 24.4386 192.294 25.8724 192.676C27.3007 193.059 28.4996 193.788 29.469 194.861C30.4328 195.935 31.1135 197.336 31.5109 199.064ZM30.4037 202.609L29.7005 199.553C29.377 198.146 28.8355 197.034 28.0761 196.215C27.3167 195.396 26.3799 194.857 25.2657 194.598C24.1516 194.339 22.8972 194.344 21.5025 194.614C20.119 194.881 18.9796 195.336 18.0842 195.977C17.1833 196.62 16.5676 197.439 16.2371 198.434C15.9011 199.43 15.8859 200.592 16.1916 201.921L16.9482 205.21L30.4037 202.609Z" fill="#F5F1F8"/>
<path d="M300.575 136.36L302.14 142.243L307.653 139.66L304.028 144.552L309.485 147.252L303.401 147.469L304.692 153.418L300.729 148.796L296.883 153.516L298.026 147.535L291.938 147.47L297.326 144.636L293.581 139.835L299.157 142.28L300.575 136.36Z" fill="#F5F1F8"/>
<path d="M14.3704 159.918L16.0221 166.129L21.8416 163.403L18.0158 168.566L23.7758 171.416L17.3534 171.645L18.7164 177.925L14.5335 173.046L10.4733 178.027L11.6798 171.715L5.25362 171.646L10.941 168.654L6.98799 163.587L12.8735 166.168L14.3704 159.918Z" fill="#F5F1F8"/>
</svg>
