<svg width="33" height="33" viewBox="0 0 33 33" fill="none" xmlns="http://www.w3.org/2000/svg">
<mask id="path-1-inside-1_829_18" fill="white">
<path d="M11.5008 23.0017C5.14909 23.0017 0 17.8526 0 11.5008C0 5.14909 5.14909 0 11.5008 0C17.8526 0 23.0017 5.14909 23.0017 11.5008"/>
</mask>
<path d="M11.5008 19.0017C7.35823 19.0017 4 15.6435 4 11.5008H-4C-4 20.0617 2.93996 27.0017 11.5008 27.0017V19.0017ZM4 11.5008C4 7.35823 7.35823 4 11.5008 4V-4C2.93996 -4 -4 2.93996 -4 11.5008H4ZM11.5008 4C15.6435 4 19.0017 7.35823 19.0017 11.5008H27.0017C27.0017 2.93996 20.0617 -4 11.5008 -4V4Z" fill="#0054F6" mask="url(#path-1-inside-1_829_18)"/>
<path d="M14.6794 13.5009H28.0382C29.1427 13.5009 30.0382 14.3963 30.0382 15.5009V28.8596C30.0382 29.9641 29.1427 30.8596 28.0382 30.8596H14.6794C13.5749 30.8596 12.6794 29.9641 12.6794 28.8596V15.5009C12.6794 14.3963 13.5749 13.5009 14.6794 13.5009Z" stroke="#0054F6" stroke-width="4"/>
</svg>
