<svg width="188" height="193" viewBox="0 0 188 193" fill="none" xmlns="http://www.w3.org/2000/svg">
<path d="M125.298 184.408C157.32 152.393 157.246 100.412 125.134 68.3067C93.0225 36.201 41.0322 36.1277 9.01074 68.1429" stroke="#0054F6" stroke-width="6"/>
<mask id="path-2-inside-1_730_264" fill="white">
<path d="M76.228 175.143C76.2262 175.141 76.2262 175.138 76.228 175.136C78.7117 172.557 80.1767 169.174 80.3543 165.608C80.6106 160.461 82.3764 154.014 87.2723 152.407L112.186 144.225C115.145 143.266 117.761 141.476 119.719 139.071C121.678 136.667 122.894 133.751 123.222 130.674L129.258 75.3042C129.41 73.8691 129.237 72.4185 128.751 71.0585C128.266 69.6986 127.481 68.4637 126.453 67.4443C125.426 66.4249 124.182 65.6467 122.813 65.1667C121.444 64.6868 119.985 64.5171 118.541 64.6703L62.8528 70.6712C59.7568 70.993 56.8211 72.2006 54.4015 74.1477C51.982 76.0947 50.1825 78.6975 49.2212 81.6407L40.8817 106.885C39.3608 111.489 33.2977 113.128 28.4492 113.13C24.5793 113.141 20.8713 114.675 18.1349 117.395C15.3984 120.115 13.8558 123.801 13.8438 127.648C13.8564 131.499 15.3986 135.188 18.1345 137.914L55.5826 175.146C56.9383 176.494 58.5478 177.563 60.3193 178.293C62.0908 179.022 63.9895 179.398 65.907 179.398C67.8244 179.398 69.7231 179.022 71.4946 178.293C73.2647 177.564 74.873 176.495 76.228 175.149C76.2298 175.147 76.2298 175.144 76.228 175.143ZM55.3879 83.641C55.9736 81.8803 57.0559 80.324 58.5059 79.1572C59.9559 77.9904 61.7125 77.2622 63.5669 77.0593L88.0637 74.4472C98.0149 73.386 103.754 85.4414 96.6566 92.4967L95.0359 94.1078C93.1753 95.9573 90.3331 96.3255 87.7757 96.9105C86.3752 97.2309 85.0927 97.9339 84.0727 98.9402C83.3447 99.6341 82.7634 100.465 82.3629 101.386C81.9624 102.306 81.7508 103.296 81.7405 104.299C81.7302 105.301 81.9214 106.296 82.3028 107.224C82.6843 108.152 83.2484 108.995 83.9621 109.704C84.6757 110.412 85.5245 110.972 86.4586 111.35C87.3927 111.728 88.3934 111.917 89.402 111.905C90.4105 111.894 91.4066 111.682 92.3318 111.283C93.257 110.884 94.0927 110.305 94.7898 109.581C95.8042 108.585 96.5083 107.319 96.818 105.935C97.3799 103.425 97.7072 100.615 99.5315 98.8017L101.382 96.9624C108.474 89.9125 120.489 95.686 119.416 105.628L116.789 129.977C116.602 131.826 115.876 133.58 114.7 135.023C113.523 136.467 111.948 137.537 110.168 138.101L83.7681 146.749C76.6251 149.088 68.7733 147.226 63.4425 141.927L51.6321 130.187C46.253 124.839 44.3614 116.91 46.7476 109.71L55.3879 83.641ZM71.6809 159.195C72.8099 160.327 73.576 161.766 73.8827 163.331C74.1893 164.895 74.0227 166.515 73.4039 167.986C72.7851 169.456 71.7417 170.712 70.4057 171.593C69.0697 172.475 67.5008 172.943 65.8972 172.939C64.8339 172.938 63.7814 172.727 62.8008 172.318C61.8202 171.909 60.931 171.311 60.1849 170.558L22.7303 133.32C21.2479 131.785 20.42 129.74 20.42 127.612C20.42 125.485 21.2479 123.44 22.7303 121.905C24.2524 120.412 26.3045 119.576 28.4427 119.576C30.5808 119.576 32.6329 120.412 34.155 121.905L71.6809 159.195Z"/>
</mask>
<path d="M112.186 144.225L90.9074 78.5879L90.7826 78.6283L90.658 78.6692L112.186 144.225ZM123.222 130.674L54.628 123.196L54.6188 123.28L54.6097 123.365L123.222 130.674ZM129.258 75.3042L197.852 82.7828L197.865 82.6636L197.877 82.5444L129.258 75.3042ZM118.541 64.6703L111.262 -3.94469L111.205 -3.93868L111.149 -3.93258L118.541 64.6703ZM62.8528 70.6712L69.987 139.301L70.1162 139.288L70.2454 139.274L62.8528 70.6712ZM49.2212 81.6407L114.739 103.285L114.775 103.174L114.811 103.064L49.2212 81.6407ZM13.8438 127.648L-55.1559 127.433L-55.1565 127.654L-55.1558 127.874L13.8438 127.648ZM18.1345 137.914L-30.5652 186.795L-30.5398 186.82L-30.5143 186.846L18.1345 137.914ZM55.5826 175.146L104.234 126.217L104.231 126.214L55.5826 175.146ZM65.907 179.398L65.907 248.398L65.907 179.398ZM71.4946 178.293L45.2194 114.491L71.4946 178.293ZM55.3879 83.641L-10.0837 61.8585L-10.0961 61.8958L-10.1084 61.933L55.3879 83.641ZM63.5669 77.0593L56.2507 8.44828L56.1558 8.45839L56.061 8.46877L63.5669 77.0593ZM84.0727 98.9402L131.677 148.889L132.109 148.477L132.533 148.058L84.0727 98.9402ZM94.7898 109.581L46.4454 60.3483L45.7468 61.0343L45.068 61.7398L94.7898 109.581ZM116.789 129.977L48.187 122.574L48.1609 122.816L48.1366 123.057L116.789 129.977ZM110.168 138.101L89.3077 72.3299L88.9978 72.4282L88.6888 72.5294L110.168 138.101ZM71.6809 159.195L120.539 110.473L120.428 110.361L120.317 110.251L71.6809 159.195ZM65.8972 172.939L66.0758 103.939L66.0234 103.939L65.9711 103.939L65.8972 172.939ZM60.1849 170.558L109.201 121.994L109.018 121.81L108.834 121.626L60.1849 170.558ZM22.7303 133.32L-26.8955 181.26L-26.412 181.761L-25.9184 182.251L22.7303 133.32ZM22.7303 121.905L-25.5826 72.6419L-26.248 73.2945L-26.8955 73.9648L22.7303 121.905ZM34.155 121.905L82.7911 72.961L82.63 72.8009L82.4679 72.6419L34.155 121.905ZM95.0359 94.1078L143.68 143.044L95.0359 94.1078ZM87.7757 96.9105L72.3881 29.6482L87.7757 96.9105ZM63.4425 141.927L14.798 190.862L63.4425 141.927ZM76.228 175.149L27.5923 126.204L76.228 175.149ZM40.8817 106.885L-24.6358 85.2411L40.8817 106.885ZM28.4492 113.13L28.4296 44.1295L28.3332 44.1296L28.2368 44.1299L28.4492 113.13ZM51.6321 130.187L100.277 81.2508L51.6321 130.187ZM46.7476 109.71L112.244 131.418L46.7476 109.71ZM76.228 175.136L125.931 222.997L76.228 175.136ZM76.228 175.143L27.6068 224.101L76.228 175.143ZM125.931 222.997C139.937 208.452 148.26 189.302 149.269 169.039L11.4397 162.176C12.0935 149.046 17.4866 136.662 26.5252 127.275L125.931 222.997ZM108.801 217.962L133.715 209.78L90.658 78.6692L65.7439 86.851L108.801 217.962ZM133.465 209.862C149.025 204.817 162.845 195.385 173.222 182.642L66.2165 95.5002C72.6776 87.5664 81.2647 81.7139 90.9074 78.5879L133.465 209.862ZM173.222 182.642C183.603 169.895 190.086 154.388 191.833 137.983L54.6097 123.365C55.7019 113.113 59.7519 103.438 66.2165 95.5002L173.222 182.642ZM191.815 138.153L197.852 82.7828L60.6649 67.8256L54.628 123.196L191.815 138.153ZM197.877 82.5444C199.115 70.8147 197.697 58.9639 193.737 47.8667L63.7655 94.2503C60.7759 85.873 59.7045 76.9234 60.6393 68.0639L197.877 82.5444ZM193.737 47.8667C189.777 36.7708 183.383 26.7298 175.053 18.4643L77.8534 116.424C71.5781 110.198 66.7547 102.626 63.7655 94.2503L193.737 47.8667ZM175.053 18.4643C166.725 10.2004 156.671 3.91958 145.643 0.0528264L99.984 130.281C91.6932 127.374 84.1271 122.649 77.8534 116.424L175.053 18.4643ZM145.643 0.0528264C134.615 -3.81351 122.871 -5.17628 111.262 -3.94469L125.821 133.285C117.099 134.211 108.274 133.187 99.984 130.281L145.643 0.0528264ZM111.149 -3.93258L55.4602 2.06836L70.2454 139.274L125.934 133.273L111.149 -3.93258ZM55.7187 2.04101C39.4321 3.73401 23.9453 10.0897 11.1435 20.3914L97.6596 127.904C89.6968 134.312 80.0814 138.252 69.987 139.301L55.7187 2.04101ZM11.1435 20.3914C-1.66257 30.6964 -11.241 44.5184 -16.3687 60.2171L114.811 103.064C111.606 112.877 105.627 121.493 97.6596 127.904L11.1435 20.3914ZM-16.2963 59.9969L-24.6358 85.2411L106.399 128.529L114.739 103.285L-16.2963 59.9969ZM28.2368 44.1299C6.27279 44.1975 -14.8544 52.8971 -30.5097 68.4593L66.7794 166.331C56.597 176.453 42.8857 182.085 28.6615 182.129L28.2368 44.1299ZM-30.5097 68.4593C-46.1787 84.0351 -55.0867 105.228 -55.1559 127.433L82.8435 127.863C82.7983 142.374 76.9755 156.195 66.7794 166.331L-30.5097 68.4593ZM-55.1558 127.874C-55.0831 150.052 -46.1976 171.22 -30.5652 186.795L66.8343 89.0333C76.9947 99.1561 82.796 112.945 82.8434 127.422L-55.1558 127.874ZM-30.5143 186.846L6.93382 224.077L104.231 126.214L66.7833 88.9826L-30.5143 186.846ZM6.93138 224.075C14.713 231.812 23.9296 237.929 34.0441 242.094L86.5945 114.491C93.1661 117.198 99.1636 121.175 104.234 126.217L6.93138 224.075ZM34.0441 242.094C44.1579 246.259 54.9837 248.398 65.907 248.398L65.907 110.398C72.9952 110.398 80.0237 111.785 86.5945 114.491L34.0441 242.094ZM65.907 248.398C76.8302 248.398 87.6561 246.259 97.7698 242.094L45.2194 114.491C51.7902 111.785 58.8187 110.398 65.907 110.398L65.907 248.398ZM97.7698 242.094C107.876 237.932 117.086 231.822 124.864 224.094L27.5923 126.204C32.66 121.169 38.6531 117.195 45.2194 114.491L97.7698 242.094ZM120.859 105.423C117.25 116.273 110.601 125.802 101.764 132.914L15.2478 25.4009C3.51098 34.8456 -5.30263 47.4881 -10.0837 61.8585L120.859 105.423ZM101.764 132.914C92.9312 140.021 82.2753 144.424 71.0728 145.65L56.061 8.46877C41.1497 10.1005 26.9806 15.9595 15.2478 25.4009L101.764 132.914ZM70.883 145.67L95.3798 143.058L80.7475 5.83613L56.2507 8.44828L70.883 145.67ZM48.012 43.561L46.3913 45.172L143.68 143.044L145.301 141.432L48.012 43.561ZM72.3881 29.6482C58.5272 32.8191 45.7827 39.7878 35.6121 49.8223L132.533 148.058C124.403 156.08 114.223 161.643 103.163 164.173L72.3881 29.6482ZM36.4688 48.9916C29.0918 56.0223 23.1782 64.4693 19.0957 73.8491L145.63 128.922C142.349 136.462 137.598 143.246 131.677 148.889L36.4688 48.9916ZM19.0957 73.8491C15.0128 83.2299 12.8495 93.3422 12.7441 103.589L150.737 105.008C150.652 113.25 148.912 121.382 145.63 128.922L19.0957 73.8491ZM12.7441 103.589C12.6387 113.836 14.5936 123.992 18.4837 133.456L146.122 80.9919C149.249 88.5998 150.822 96.7663 150.737 105.008L12.7441 103.589ZM18.4837 133.456C22.3734 142.919 28.1138 151.487 35.3472 158.669L132.577 60.7384C138.383 66.503 142.995 73.385 146.122 80.9919L18.4837 133.456ZM35.3472 158.669C42.5797 165.85 51.159 171.5 60.5706 175.309L112.347 47.3905C119.89 50.4438 126.772 54.9747 132.577 60.7384L35.3472 158.669ZM60.5706 175.309C69.9818 179.119 80.0492 181.016 90.1862 180.901L88.6178 42.9099C96.7377 42.8177 104.804 44.3375 112.347 47.3905L60.5706 175.309ZM90.1862 180.901C100.323 180.786 110.346 178.66 119.669 174.637L64.9943 47.9298C72.4673 44.7051 80.4977 43.0022 88.6178 42.9099L90.1862 180.901ZM119.669 174.637C128.994 170.613 137.444 164.767 144.512 157.421L45.068 61.7398C50.7418 55.8429 57.5204 51.1548 64.9943 47.9298L119.669 174.637ZM143.134 158.813C153.611 148.525 160.929 135.407 164.152 121.007L29.4841 90.8641C32.0881 79.2305 37.9976 68.6437 46.4454 60.3483L143.134 158.813ZM148.176 147.737L150.026 145.898L52.7372 48.0266L50.8869 49.8659L148.176 147.737ZM50.8146 98.2252L48.187 122.574L185.39 137.38L188.018 113.031L50.8146 98.2252ZM48.1366 123.057C49.3089 111.427 53.8741 100.437 61.2139 91.4313L168.186 178.615C177.878 166.723 183.896 152.225 185.441 136.898L48.1366 123.057ZM61.2139 91.4313C68.5501 82.43 78.3276 75.8123 89.3077 72.3299L131.028 203.873C145.568 199.261 158.497 190.503 168.186 178.615L61.2139 91.4313ZM88.6888 72.5294L62.2893 81.1769L105.247 212.32L131.646 203.673L88.6888 72.5294ZM112.087 92.9909L100.277 81.2508L2.98758 179.122L14.798 190.862L112.087 92.9909ZM112.244 131.418L120.884 105.349L-10.1084 61.933L-18.7487 88.0021L112.244 131.418ZM22.8225 207.917C14.32 199.391 8.50313 188.501 6.17091 176.602L141.594 150.06C138.649 135.031 131.3 121.263 120.539 110.473L22.8225 207.917ZM6.17091 176.602C3.83821 164.7 5.10949 152.382 9.80562 141.223L137.002 194.749C142.936 180.648 144.54 165.091 141.594 150.06L6.17091 176.602ZM9.80562 141.223C14.4999 130.068 22.3858 120.611 32.4044 114.001L108.407 229.186C121.098 220.812 131.07 208.845 137.002 194.749L9.80562 141.223ZM32.4044 114.001C42.4184 107.393 54.1345 103.908 66.0758 103.939L65.7187 241.939C80.8671 241.978 95.7209 237.557 108.407 229.186L32.4044 114.001ZM65.9711 103.939C73.9874 103.948 81.9321 105.538 89.3478 108.629L36.2538 236.007C45.6307 239.915 55.6805 241.928 65.8234 241.939L65.9711 103.939ZM89.3478 108.629C96.7641 111.721 103.516 116.257 109.201 121.994L11.1688 219.122C18.3459 226.366 26.8763 232.098 36.2538 236.007L89.3478 108.629ZM108.834 121.626L71.3791 84.3883L-25.9184 182.251L11.5361 219.489L108.834 121.626ZM72.3562 85.3795C83.2614 96.6682 89.42 111.795 89.42 127.612L-48.58 127.612C-48.58 147.685 -40.7657 166.902 -26.8955 181.26L72.3562 85.3795ZM89.42 127.612C89.42 143.43 83.2615 158.557 72.3562 169.845L-26.8955 73.9648C-40.7657 88.3227 -48.58 107.54 -48.58 127.612L89.42 127.612ZM71.0433 171.168C59.6235 182.368 44.3121 188.576 28.4427 188.576L28.4427 50.5755C8.29699 50.5755 -11.1187 58.4571 -25.5826 72.6419L71.0433 171.168ZM28.4427 188.576C12.5733 188.576 -2.73819 182.368 -14.158 171.168L82.4679 72.6419C68.004 58.4571 48.5883 50.5755 28.4427 50.5755L28.4427 188.576ZM-14.4811 170.849L23.0448 208.139L120.317 110.251L82.7911 72.961L-14.4811 170.849ZM150.026 145.898C111.011 184.681 44.9123 152.92 50.8146 98.2252L188.018 113.031C196.066 38.4522 105.937 -4.8563 52.7372 48.0266L150.026 145.898ZM164.152 121.007C164.354 120.105 164.517 119.317 164.592 118.952C164.649 118.678 164.652 118.663 164.681 118.52C164.699 118.434 164.7 118.434 164.69 118.477C164.685 118.503 164.353 120.101 163.685 122.285C162.421 126.42 158.596 137.38 148.176 147.737L50.8869 49.8659C38.643 62.037 33.7421 75.3088 31.7174 81.93C30.6695 85.3567 30.0366 88.2412 29.7548 89.5562C29.617 90.1989 29.4747 90.8938 29.45 91.013C29.3929 91.2891 29.4227 91.1384 29.4841 90.8641L164.152 121.007ZM46.3913 45.172C56.4315 35.1916 66.9449 31.424 71.0036 30.15C73.1379 29.4802 74.6951 29.1432 74.7498 29.131C74.776 29.1252 74.8046 29.1192 74.3293 29.2208C73.9934 29.2926 73.2392 29.4535 72.3881 29.6482L103.163 164.173C102.951 164.221 102.846 164.243 103.162 164.175C103.339 164.137 104.023 163.992 104.705 163.841C106.07 163.537 108.933 162.883 112.331 161.817C118.915 159.75 131.78 154.874 143.68 143.044L46.3913 45.172ZM62.2893 81.1769C79.7898 75.4444 99.0266 80.0081 112.087 92.9909L14.798 190.862C38.52 214.443 73.4604 222.733 105.247 212.32L62.2893 81.1769ZM124.864 224.094C152.022 197.107 152.019 153.166 124.849 126.184L27.6068 224.101C0.440807 197.123 0.437833 153.188 27.5923 126.204L124.864 224.094ZM-24.6358 85.2411C-16.9707 62.0383 0.605332 51.7764 8.85691 48.2591C17.2093 44.6989 24.1771 44.1307 28.4296 44.1295L28.4687 182.13C37.5697 182.127 49.9934 180.738 62.9697 175.207C75.8452 169.719 97.2132 156.335 106.399 128.529L-24.6358 85.2411ZM95.3798 143.058C40.5245 148.908 8.88681 82.4534 48.012 43.561L145.301 141.432C198.621 88.4294 155.505 -2.13546 80.7475 5.83613L95.3798 143.058ZM100.277 81.2508C113.456 94.3513 118.09 113.779 112.244 131.418L-18.7487 88.0021C-29.3673 120.04 -20.9496 155.328 2.98758 179.122L100.277 81.2508ZM149.269 169.039C149.129 171.845 148.567 177.92 145.184 185.574C141.88 193.049 131.824 210.401 108.801 217.962L65.7439 86.851C37.8243 96.0198 24.4377 117.399 18.9629 129.786C13.4093 142.352 11.8357 154.223 11.4397 162.176L149.269 169.039ZM26.5252 127.275C0.454801 154.349 0.782101 197.462 27.6068 224.101L124.849 126.184C151.67 152.82 151.998 195.926 125.931 222.997L26.5252 127.275Z" fill="#0054F6" mask="url(#path-2-inside-1_730_264)"/>
<rect y="58.7328" width="16.5793" height="16.5762" rx="8.28808" fill="#0054F6"/>
<rect x="116.885" y="176.424" width="16.5793" height="16.5762" rx="8.28808" fill="#0054F6"/>
<line y1="-3" x2="151.006" y2="-3" transform="matrix(0.707175 0.707039 -0.707175 0.707039 71.5781 15.4164)" stroke="#0054F6" stroke-width="6"/>
<circle cx="8.28888" cy="8.28888" r="8.28888" transform="matrix(0.707175 -0.707039 0.707175 0.707039 61.0469 11.7211)" fill="#0054F6"/>
<circle cx="8.28888" cy="8.28888" r="8.28888" transform="matrix(0.707175 -0.707039 0.707175 0.707039 164.554 118.147)" fill="#0054F6"/>
</svg>
