<svg width="43" height="43" viewBox="0 0 43 43" fill="none" xmlns="http://www.w3.org/2000/svg">
<path d="M31.621 21.5361L26.8267 24.1601C25.7022 24.774 24.7759 25.7002 24.1593 26.8275L21.5381 31.6218L18.9169 26.8275C18.3003 25.7002 17.374 24.774 16.2467 24.1601L11.4551 21.5361L16.2467 18.9149C17.374 18.301 18.3003 17.3747 18.9169 16.2474L21.5381 11.4531L24.1593 16.2474C24.7759 17.3747 25.7022 18.301 26.8267 18.9149L31.621 21.5361Z" stroke="#F5F1F8" stroke-width="2" stroke-miterlimit="10"/>
<path d="M11.25 21.4375C11.25 24.7134 11.6357 27.81 12.3229 30.5508C15.0637 31.238 18.1603 31.6237 21.4362 31.6237C24.7121 31.6237 27.8087 31.238 30.5494 30.5508C31.2367 27.81 31.6224 24.7134 31.6224 21.4375" stroke="#F5F1F8" stroke-width="2" stroke-miterlimit="10"/>
<path d="M31.6224 21.4362C31.6224 18.1604 31.2367 15.0637 30.5494 12.323C27.8087 11.6358 24.7121 11.25 21.4362 11.25C18.1603 11.25 15.0637 11.6358 12.3229 12.323C11.6357 15.0637 11.25 18.1604 11.25 21.4362" stroke="#F5F1F8" stroke-width="2" stroke-miterlimit="10"/>
<path d="M26.4763 3.95032L30.1245 10.6208C30.645 11.5725 31.4275 12.355 32.3792 12.8755L39.0497 16.5237C42.9834 18.6751 42.9834 24.3249 39.0497 26.4763L32.3792 30.1245C31.4275 30.645 30.645 31.4275 30.1245 32.3792L26.4763 39.0497C24.3249 42.9834 18.6751 42.9834 16.5237 39.0497L12.8755 32.3792C12.355 31.4275 11.5725 30.645 10.6208 30.1245L3.95032 26.4763C0.0165611 24.3249 0.0165611 18.6751 3.95032 16.5237L10.6208 12.8755C11.5725 12.355 12.355 11.5725 12.8755 10.6208L16.5237 3.95032C18.6751 0.0165611 24.3249 0.0165611 26.4763 3.95032Z" stroke="#F5F1F8" stroke-width="2" stroke-miterlimit="10"/>
<circle cx="21.5" cy="21.5" r="20.5" stroke="#F5F1F8" stroke-width="2" stroke-miterlimit="10"/>
<path d="M21.5 42L21.5 31.6475M21.5 1L21.5 11.3525" stroke="#F5F1F8" stroke-width="2" stroke-miterlimit="10"/>
<path d="M1 21.5L11.5575 21.5M42 21.5L30.4175 21.5" stroke="#F5F1F8" stroke-width="2" stroke-miterlimit="10"/>
</svg>
