<svg width="22" height="22" viewBox="0 0 22 22" fill="none" xmlns="http://www.w3.org/2000/svg">
<path d="M11 14.3C11.891 14.3 12.65 13.97 13.321 13.321C13.97 12.65 14.3 11.891 14.3 11C14.3 10.109 13.97 9.35 13.321 8.679C12.65 8.03 11.891 7.7 11 7.7C10.109 7.7 9.35 8.03 8.679 8.679C8.03 9.35 7.7 10.109 7.7 11C7.7 11.891 8.03 12.65 8.679 13.321C9.35 13.97 10.109 14.3 11 14.3ZM11 0C14.025 0 16.61 1.1 18.755 3.245C20.9 5.39 22 7.975 22 11V12.595C22 13.695 21.615 14.63 20.9 15.4C20.13 16.137 19.25 16.5 18.15 16.5C16.1573 16.5 13.5748 16.2731 11.5919 16.471C11.3984 16.4903 11.2012 16.5 11 16.5C9.493 16.5 8.195 15.95 7.106 14.894C6.05 13.805 5.5 12.518 5.5 11C5.5 9.493 6.05 8.195 7.106 7.106C8.195 6.05 9.493 5.5 11 5.5C12.518 5.5 13.805 6.05 14.894 7.106C15.95 8.195 16.5 9.493 16.5 11V12.595C16.5 13.046 16.676 13.442 17.006 13.783C17.336 14.124 17.721 14.3 18.15 14.3C18.612 14.3 18.997 14.124 19.327 13.783C19.657 13.442 19.8 13.046 19.8 12.595V11C19.8 8.591 18.953 6.523 17.215 4.785C15.477 3.047 13.409 2.2 11 2.2C8.591 2.2 6.523 3.047 4.785 4.785C3.047 6.523 2.2 8.591 2.2 11C2.2 13.409 3.047 15.477 4.785 17.215C6.523 18.953 8.591 19.8 11 19.8H15.4C16.0075 19.8 16.5 20.2925 16.5 20.9C16.5 21.5075 16.0075 22 15.4 22H11C7.975 22 5.39 20.9 3.245 18.755C1.1 16.61 0 14.025 0 11C0 7.975 1.1 5.39 3.245 3.245C5.39 1.1 7.975 0 11 0Z" fill="#F5F1F8"/>
</svg>
