<svg width="226" height="226" viewBox="0 0 226 226" fill="none" xmlns="http://www.w3.org/2000/svg">
<path d="M166.177 113.218L140.92 127.042C134.996 130.276 130.116 135.156 126.867 141.094L113.058 166.352L99.2484 141.094C95.9999 135.156 91.1199 130.276 85.1812 127.042L59.9375 113.218L85.1812 99.4082C91.1199 96.1741 95.9999 91.2944 99.2484 85.3553L113.058 60.0977L126.867 85.3553C130.116 91.2944 134.996 96.1741 140.92 99.4082L166.177 113.218Z" stroke="#0054F6" stroke-width="9" stroke-miterlimit="10"/>
<path d="M59 112.664C59 129.922 61.032 146.236 64.6522 160.675C79.0918 164.296 95.4055 166.328 112.664 166.328C129.922 166.328 146.236 164.296 160.675 160.675C164.296 146.236 166.328 129.922 166.328 112.664" stroke="#0054F6" stroke-width="9" stroke-miterlimit="10"/>
<path d="M166.328 112.664C166.328 95.4059 164.296 79.0918 160.675 64.6529C146.236 61.0323 129.922 59 112.664 59C95.4055 59 79.0918 61.0323 64.6522 64.6529C61.032 79.0918 59 95.4059 59 112.664" stroke="#0054F6" stroke-width="9" stroke-miterlimit="10"/>
<path d="M139.217 20.5431L158.437 55.6852C161.179 60.699 165.301 64.8213 170.315 67.5635L205.457 86.7833C226.181 98.1177 226.181 127.882 205.457 139.217L170.315 158.437C165.301 161.179 161.179 165.301 158.437 170.315L139.217 205.457C127.882 226.181 98.1177 226.181 86.7833 205.457L67.5635 170.315C64.8213 165.301 60.699 161.179 55.6852 158.437L20.5431 139.217C-0.181044 127.882 -0.181044 98.1177 20.5431 86.7833L55.6852 67.5635C60.699 64.8213 64.8213 60.699 67.5635 55.6852L86.7833 20.5431C98.1177 -0.181044 127.882 -0.181044 139.217 20.5431Z" stroke="#0054F6" stroke-width="9" stroke-miterlimit="10"/>
<circle cx="113" cy="113" r="108" stroke="#0054F6" stroke-width="9" stroke-miterlimit="10"/>
<path d="M113 221L113 166.46M113 4.99999L113 59.54" stroke="#0054F6" stroke-width="9" stroke-miterlimit="10"/>
<path d="M5 113L60.62 113M221 113L159.98 113" stroke="#0054F6" stroke-width="9" stroke-miterlimit="10"/>
</svg>
