<svg width="529" height="256" viewBox="0 0 529 256" fill="none" xmlns="http://www.w3.org/2000/svg">
<path d="M390.302 265.015L330.549 297.719C316.534 305.37 304.989 316.914 297.304 330.964L264.635 390.718L231.965 330.964C224.28 316.914 212.735 305.37 198.686 297.719L138.966 265.015L198.686 232.345C212.735 224.694 224.28 213.15 231.965 199.1L264.635 139.347L297.304 199.1C304.989 213.15 316.534 224.694 330.549 232.345L390.302 265.015Z" stroke="#F5F1F8" stroke-width="17" stroke-miterlimit="10"/>
<path d="M390.66 263.705C390.66 222.877 385.853 184.282 377.287 150.123C343.128 141.558 304.534 136.75 263.705 136.75C222.876 136.75 184.282 141.558 150.122 150.123C141.557 184.282 136.75 222.877 136.75 263.705" stroke="#F5F1F8" stroke-width="17" stroke-miterlimit="10"/>
<path d="M326.522 45.771L371.991 128.908C378.478 140.769 388.231 150.522 400.092 157.009L483.229 202.478C532.257 229.292 532.257 299.708 483.229 326.522L400.092 371.991C388.231 378.478 378.478 388.231 371.991 400.092L326.522 483.229C299.708 532.257 229.292 532.257 202.478 483.229L157.009 400.092C150.522 388.231 140.769 378.478 128.908 371.991L45.771 326.522C-3.25701 299.708 -3.25701 229.292 45.771 202.478L128.908 157.009C140.769 150.522 150.522 140.769 157.009 128.908L202.478 45.771C229.292 -3.25701 299.708 -3.25701 326.522 45.771Z" stroke="#F5F1F8" stroke-width="17" stroke-miterlimit="10"/>
<circle cx="264.5" cy="264.5" r="255.5" stroke="#F5F1F8" stroke-width="17" stroke-miterlimit="10"/>
<path d="M264.5 520L264.5 390.972M264.5 8.99999L264.5 138.027" stroke="#F5F1F8" stroke-width="17" stroke-miterlimit="10"/>
</svg>
