<svg width="109" height="109" viewBox="0 0 109 109" fill="none" xmlns="http://www.w3.org/2000/svg">
<mask id="mask0_842_132" style="mask-type:alpha" maskUnits="userSpaceOnUse" x="3" y="3" width="103" height="103">
<path d="M6.00044 88.0867L6.00043 20.0005C6.00043 12.2685 12.2684 6.00052 20.0004 6.00052L88.0865 6.00051C95.8185 6.00051 102.087 12.2685 102.087 20.0005L102.087 88.0866C102.087 95.8186 95.8186 102.087 88.0866 102.087L20.0004 102.087C12.2685 102.087 6.00044 95.8186 6.00044 88.0867Z" fill="#EA5455" stroke="#BDBDBD" stroke-width="6" stroke-miterlimit="10"/>
</mask>
<g mask="url(#mask0_842_132)">
<path d="M126.041 58.5444C87.7838 20.2875 40.5974 0.138374 0.591483 1.07425C-0.350306 41.0802 19.7989 88.2667 58.0586 126.526C39.287 107.755 39.2871 77.3189 58.0616 58.5444C76.8332 39.7729 107.269 39.7728 126.041 58.5444Z" fill="#0054F6" stroke="#F5F1F8" stroke-width="6" stroke-miterlimit="10"/>
<path d="M74.5935 75.065C84.2424 65.416 99.8845 65.416 109.534 75.065L126.053 58.5455C107.281 39.7739 76.8455 39.774 58.074 58.5455C39.2994 77.3201 39.2994 107.756 58.071 126.528L74.5905 110.008C64.9414 100.359 64.9443 84.7141 74.5935 75.065Z" stroke="#F5F1F8" stroke-width="6" stroke-miterlimit="10"/>
<path d="M104.268 71.6688C115.679 78.2571 119.589 92.8487 113.001 104.26C106.412 115.671 91.8207 119.581 80.4094 112.993C68.9981 106.404 65.0883 91.8129 71.6766 80.4016C78.2649 68.9903 92.8565 65.0805 104.268 71.6688Z" fill="#0054F6" stroke="#F5F1F8" stroke-width="6" stroke-miterlimit="10"/>
<path d="M74.5901 110.008C64.941 100.359 64.9439 84.7141 74.593 75.065C84.242 65.4161 99.8841 65.416 109.533 75.065" stroke="#F5F1F8" stroke-width="6" stroke-miterlimit="10"/>
</g>
<path d="M3.00001 88.0859L3 20C3 10.6112 10.6111 3 20 3L88.0859 2.99999C97.4747 2.99999 105.086 10.6111 105.086 20L105.086 88.0859C105.086 97.4747 97.4747 105.086 88.0859 105.086L20 105.086C10.6112 105.086 3.00001 97.4747 3.00001 88.0859Z" stroke="#F5F1F8" stroke-width="6" stroke-miterlimit="10"/>
</svg>
