<svg width="30" height="30" viewBox="0 0 30 30" fill="none" xmlns="http://www.w3.org/2000/svg">
<path fill-rule="evenodd" clip-rule="evenodd" d="M15 30C23.2843 30 30 23.2843 30 15C30 6.71573 23.2843 0 15 0C6.71573 0 0 6.71573 0 15C0 23.2843 6.71573 30 15 30ZM18.1501 7.5H11.8501C10.6964 7.5 9.58997 7.9583 8.77419 8.77409C7.95841 9.58987 7.5001 10.6963 7.5001 11.85V18.15C7.5001 20.55 9.4501 22.5 11.8501 22.5H18.1501C19.3038 22.5 20.4102 22.0417 21.226 21.2259C22.0418 20.4101 22.5001 19.3037 22.5001 18.15V11.85C22.5001 9.45 20.5501 7.5 18.1501 7.5ZM9.79092 9.79081C10.2973 9.28446 10.984 9 11.7001 9H18.3001C19.7926 9 21.0001 10.2075 21.0001 11.7V18.3C21.0001 19.0161 20.7156 19.7028 20.2093 20.2092C19.7029 20.7155 19.0162 21 18.3001 21H11.7001C10.2076 21 9.0001 19.7925 9.0001 18.3V11.7C9.0001 10.9839 9.28457 10.2972 9.79092 9.79081ZM19.6005 10.3996C19.4247 10.2238 19.1862 10.125 18.9376 10.125C18.689 10.125 18.4505 10.2238 18.2747 10.3996C18.0989 10.5754 18.0001 10.8139 18.0001 11.0625C18.0001 11.3111 18.0989 11.5496 18.2747 11.7254C18.4505 11.9012 18.689 12 18.9376 12C19.1862 12 19.4247 11.9012 19.6005 11.7254C19.7763 11.5496 19.8751 11.3111 19.8751 11.0625C19.8751 10.8139 19.7763 10.5754 19.6005 10.3996ZM17.6518 12.3483C16.9485 11.6451 15.9947 11.25 15.0001 11.25C14.0055 11.25 13.0517 11.6451 12.3485 12.3483C11.6452 13.0516 11.2501 14.0054 11.2501 15C11.2501 15.9946 11.6452 16.9484 12.3485 17.6516C13.0517 18.3549 14.0055 18.75 15.0001 18.75C15.9947 18.75 16.9485 18.3549 17.6518 17.6516C18.355 16.9484 18.7501 15.9946 18.7501 15C18.7501 14.0054 18.355 13.0516 17.6518 12.3483ZM13.4091 13.409C13.8311 12.9871 14.4034 12.75 15.0001 12.75C15.5968 12.75 16.1691 12.9871 16.5911 13.409C17.0131 13.831 17.2501 14.4033 17.2501 15C17.2501 15.5967 17.0131 16.169 16.5911 16.591C16.1691 17.0129 15.5968 17.25 15.0001 17.25C14.4034 17.25 13.8311 17.0129 13.4091 16.591C12.9872 16.169 12.7501 15.5967 12.7501 15C12.7501 14.4033 12.9872 13.831 13.4091 13.409Z" fill="#0054F6"/>
</svg>
