<svg width="187" height="47" viewBox="0 0 187 47" fill="none" xmlns="http://www.w3.org/2000/svg">
<path d="M71.152 15C73.2 15 74.992 15.376 76.528 16.128C78.08 16.88 79.288 17.936 80.152 19.296C81.016 20.64 81.448 22.208 81.448 24C81.448 25.792 81.016 27.368 80.152 28.728C79.288 30.072 78.08 31.12 76.528 31.872C74.992 32.624 73.2 33 71.152 33H63.016V15H71.152ZM66.184 31.896L64.432 30.216H71.368C72.744 30.216 73.944 29.96 74.968 29.448C76.008 28.92 76.808 28.192 77.368 27.264C77.944 26.32 78.232 25.232 78.232 24C78.232 22.752 77.944 21.664 77.368 20.736C76.808 19.808 76.008 19.088 74.968 18.576C73.944 18.048 72.744 17.784 71.368 17.784H64.432L66.184 16.104V31.896ZM91.3476 33.336C89.7636 33.336 88.3556 33.04 87.1236 32.448C85.8916 31.84 84.9236 31 84.2196 29.928C83.5156 28.856 83.1636 27.608 83.1636 26.184C83.1636 24.776 83.4916 23.544 84.1476 22.488C84.8196 21.416 85.7396 20.584 86.9076 19.992C88.0916 19.384 89.4436 19.08 90.9636 19.08C92.4836 19.08 93.7956 19.424 94.8996 20.112C96.0196 20.784 96.8836 21.736 97.4916 22.968C98.0996 24.2 98.4036 25.648 98.4036 27.312H85.6116V24.936H96.8436L95.2836 25.824C95.2356 24.928 95.0196 24.16 94.6356 23.52C94.2676 22.88 93.7636 22.392 93.1236 22.056C92.4996 21.704 91.7556 21.528 90.8916 21.528C89.9796 21.528 89.1796 21.712 88.4916 22.08C87.8196 22.448 87.2916 22.968 86.9076 23.64C86.5236 24.296 86.3316 25.08 86.3316 25.992C86.3316 27 86.5556 27.872 87.0036 28.608C87.4676 29.344 88.1156 29.912 88.9476 30.312C89.7956 30.696 90.7956 30.888 91.9476 30.888C92.9876 30.888 94.0516 30.728 95.1396 30.408C96.2276 30.072 97.1876 29.608 98.0196 29.016V31.272C97.1876 31.912 96.1716 32.416 94.9716 32.784C93.7876 33.152 92.5796 33.336 91.3476 33.336ZM114.795 28.872C114.795 29.784 114.539 30.576 114.027 31.248C113.515 31.92 112.739 32.44 111.699 32.808C110.659 33.16 109.355 33.336 107.787 33.336C106.171 33.336 104.771 33.136 103.587 32.736C102.403 32.32 101.483 31.744 100.827 31.008C100.187 30.256 99.8427 29.392 99.7947 28.416H102.963C103.059 28.928 103.315 29.384 103.731 29.784C104.163 30.168 104.723 30.464 105.411 30.672C106.115 30.88 106.915 30.984 107.811 30.984C109.107 30.984 110.083 30.832 110.739 30.528C111.395 30.208 111.723 29.728 111.723 29.088C111.723 28.656 111.499 28.328 111.051 28.104C110.619 27.88 109.795 27.712 108.579 27.6L105.915 27.36C104.475 27.232 103.339 26.976 102.507 26.592C101.675 26.192 101.083 25.712 100.731 25.152C100.379 24.576 100.203 23.968 100.203 23.328C100.203 22.4 100.491 21.624 101.067 21C101.643 20.376 102.443 19.904 103.467 19.584C104.491 19.248 105.683 19.08 107.043 19.08C108.451 19.08 109.707 19.28 110.811 19.68C111.915 20.064 112.795 20.608 113.451 21.312C114.107 22 114.475 22.8 114.555 23.712H111.387C111.323 23.344 111.131 22.992 110.811 22.656C110.507 22.304 110.035 22.016 109.395 21.792C108.771 21.552 107.931 21.432 106.875 21.432C105.755 21.432 104.875 21.576 104.235 21.864C103.611 22.152 103.299 22.576 103.299 23.136C103.299 23.488 103.491 23.792 103.875 24.048C104.259 24.288 104.971 24.456 106.011 24.552L109.443 24.864C110.819 24.992 111.891 25.24 112.659 25.608C113.443 25.96 113.995 26.416 114.315 26.976C114.635 27.536 114.795 28.168 114.795 28.872ZM117.084 19.32L118.644 19.608L120.204 19.32V33H117.084V19.32ZM118.644 17.616C118.052 17.616 117.564 17.456 117.18 17.136C116.796 16.8 116.604 16.368 116.604 15.84C116.604 15.312 116.796 14.888 117.18 14.568C117.564 14.232 118.052 14.064 118.644 14.064C119.252 14.064 119.74 14.232 120.108 14.568C120.492 14.888 120.684 15.312 120.684 15.84C120.684 16.368 120.492 16.8 120.108 17.136C119.74 17.456 119.252 17.616 118.644 17.616ZM135.602 29.664V27.264L135.722 26.832V24.216L135.602 23.736V19.416H138.722V29.376C138.722 31.12 138.354 32.576 137.618 33.744C136.882 34.928 135.874 35.816 134.594 36.408C133.314 37 131.842 37.296 130.178 37.296C128.962 37.296 127.842 37.136 126.818 36.816C125.794 36.496 124.802 36.008 123.842 35.352V32.76C124.818 33.528 125.826 34.064 126.866 34.368C127.906 34.688 128.946 34.848 129.986 34.848C131.81 34.848 133.202 34.4 134.162 33.504C135.122 32.608 135.602 31.328 135.602 29.664ZM129.074 31.944C127.826 31.944 126.706 31.68 125.714 31.152C124.722 30.608 123.938 29.856 123.362 28.896C122.786 27.936 122.498 26.808 122.498 25.512C122.498 24.216 122.786 23.088 123.362 22.128C123.938 21.168 124.722 20.424 125.714 19.896C126.706 19.352 127.826 19.08 129.074 19.08C130.002 19.08 130.858 19.224 131.642 19.512C132.442 19.8 133.154 20.184 133.778 20.664C134.418 21.128 134.954 21.648 135.386 22.224C135.834 22.784 136.178 23.36 136.418 23.952C136.658 24.528 136.778 25.056 136.778 25.536C136.778 26.16 136.594 26.848 136.226 27.6C135.858 28.336 135.33 29.032 134.642 29.688C133.97 30.344 133.162 30.888 132.218 31.32C131.274 31.736 130.226 31.944 129.074 31.944ZM130.034 29.64C131.17 29.64 132.21 29.312 133.154 28.656C134.114 28 134.97 26.952 135.722 25.512C134.97 24.04 134.114 22.984 133.154 22.344C132.21 21.688 131.17 21.36 130.034 21.36C129.106 21.36 128.314 21.536 127.658 21.888C127.002 22.24 126.498 22.728 126.146 23.352C125.81 23.976 125.642 24.696 125.642 25.512C125.642 26.312 125.81 27.024 126.146 27.648C126.498 28.272 127.002 28.76 127.658 29.112C128.314 29.464 129.106 29.64 130.034 29.64ZM141.729 14.52H144.849V33H141.729V14.52ZM150.249 19.08C151.529 19.08 152.617 19.336 153.513 19.848C154.409 20.36 155.089 21.096 155.553 22.056C156.033 23 156.273 24.144 156.273 25.488V33H153.153V25.992C153.153 24.568 152.817 23.496 152.145 22.776C151.489 22.04 150.521 21.672 149.241 21.672C148.361 21.672 147.585 21.872 146.913 22.272C146.257 22.656 145.745 23.2 145.377 23.904C145.025 24.608 144.849 25.432 144.849 26.376L143.745 25.776C143.889 24.368 144.257 23.168 144.849 22.176C145.441 21.184 146.201 20.424 147.129 19.896C148.057 19.352 149.097 19.08 150.249 19.08ZM157.438 21.816V20.4L160.342 19.656L161.638 15.864H163.462V19.416H169.774V21.816H163.462V27.696C163.462 28.832 163.702 29.632 164.182 30.096C164.678 30.544 165.478 30.768 166.582 30.768C167.286 30.768 167.91 30.696 168.454 30.552C168.998 30.392 169.518 30.168 170.014 29.88V32.448C169.598 32.656 169.006 32.856 168.238 33.048C167.486 33.24 166.71 33.336 165.91 33.336C164.582 33.336 163.51 33.12 162.694 32.688C161.878 32.24 161.278 31.632 160.894 30.864C160.526 30.08 160.342 29.184 160.342 28.176V21.816H157.438Z" fill="#F5F1F8"/>
<path d="M37.9999 3L9 3C5.68629 3 3 5.6863 3 9.00001L3 37.9999C3 41.3136 5.6863 43.9999 9 43.9999L37.9999 43.9999C41.3136 43.9999 43.9999 41.3136 43.9999 37.9999L43.9999 9C43.9999 5.68629 41.3136 3 37.9999 3Z" fill="#05050D"/>
<mask id="mask0_730_14" style="mask-type:alpha" maskUnits="userSpaceOnUse" x="1" y="1" width="45" height="45">
<path d="M44 3L13.9999 3C7.92481 3 2.99994 7.92487 2.99994 14L2.99994 44L44 44L44 3Z" fill="#EA5455" stroke="#BDBDBD" stroke-width="3" stroke-miterlimit="10"/>
</mask>
<g mask="url(#mask0_730_14)">
<path d="M25.4202 54.2214C9.09594 37.8972 0.498299 17.7627 0.897637 0.692142C17.9682 0.290281 38.1027 8.88796 54.4282 25.2134C46.4183 17.2036 33.4313 17.2036 25.4202 25.2147C17.4104 33.2245 17.4103 46.2116 25.4202 54.2214Z" fill="#0054F6" stroke="#F5F1F8" stroke-width="3" stroke-miterlimit="10"/>
<path d="M32.4699 32.2684C28.3527 36.3856 28.3527 43.0601 32.4699 47.1773L25.4211 54.2262C17.4112 46.2164 17.4113 33.2293 25.4211 25.2195C33.4322 17.2084 46.4192 17.2084 54.4291 25.2182L47.3802 32.2671C43.263 28.1498 36.5872 28.1511 32.4699 32.2684Z" fill="#05050D" stroke="#F5F1F8" stroke-width="3" stroke-miterlimit="10"/>
<path d="M31.0226 44.9305C33.8338 49.7997 40.0601 51.468 44.9293 48.6568C49.7985 45.8455 51.4668 39.6193 48.6556 34.7501C45.8443 29.8809 39.6181 28.2126 34.7489 31.0238C29.8797 33.835 28.2114 40.0613 31.0226 44.9305Z" fill="#0054F6" stroke="#F5F1F8" stroke-width="3" stroke-miterlimit="10"/>
<path d="M47.3803 32.267C43.2631 28.1497 36.5874 28.151 32.4701 32.2683C28.3529 36.3855 28.3528 43.06 32.4701 47.1772" stroke="#F5F1F8" stroke-width="3" stroke-miterlimit="10"/>
</g>
<path d="M45.4999 3L45.4999 1.5L43.9999 1.5L11 1.5C5.75329 1.5 1.5 5.7533 1.5 11L1.5 35.9999C1.5 41.2466 5.7533 45.4999 11 45.4999L43.9999 45.4999L45.4999 45.4999L45.4999 43.9999L45.4999 3Z" stroke="#F5F1F8" stroke-width="3" stroke-miterlimit="10"/>
<rect x="1.5" y="1.5" width="184" height="44" rx="9.5" stroke="#F5F1F8" stroke-width="3"/>
</svg>
