<svg width="187" height="47" viewBox="0 0 187 47" fill="none" xmlns="http://www.w3.org/2000/svg">
<path d="M71.1516 14.9985C73.1996 14.9985 74.9916 15.3745 76.5276 16.1265C78.0796 16.8785 79.2876 17.9345 80.1516 19.2945C81.0156 20.6385 81.4476 22.2065 81.4476 23.9985C81.4476 25.7905 81.0156 27.3665 80.1516 28.7265C79.2876 30.0705 78.0796 31.1185 76.5276 31.8705C74.9916 32.6225 73.1996 32.9985 71.1516 32.9985H63.0156V14.9985H71.1516ZM66.1836 31.8945L64.4316 30.2145H71.3676C72.7436 30.2145 73.9436 29.9585 74.9676 29.4465C76.0076 28.9185 76.8076 28.1905 77.3676 27.2625C77.9436 26.3185 78.2316 25.2305 78.2316 23.9985C78.2316 22.7505 77.9436 21.6625 77.3676 20.7345C76.8076 19.8065 76.0076 19.0865 74.9676 18.5745C73.9436 18.0465 72.7436 17.7825 71.3676 17.7825H64.4316L66.1836 16.1025V31.8945Z" fill="#F5F1F8"/>
<path d="M91.3472 33.3345C89.7633 33.3345 88.3552 33.0385 87.1232 32.4465C85.8912 31.8385 84.9233 30.9985 84.2192 29.9265C83.5152 28.8545 83.1632 27.6065 83.1632 26.1825C83.1632 24.7745 83.4912 23.5425 84.1472 22.4865C84.8193 21.4145 85.7393 20.5825 86.9072 19.9905C88.0912 19.3825 89.4432 19.0785 90.9632 19.0785C92.4832 19.0785 93.7953 19.4225 94.8993 20.1105C96.0193 20.7825 96.8833 21.7345 97.4913 22.9665C98.0993 24.1985 98.4033 25.6465 98.4033 27.3105H85.6112V24.9345H96.8433L95.2833 25.8225C95.2353 24.9265 95.0193 24.1585 94.6353 23.5185C94.2673 22.8785 93.7633 22.3905 93.1233 22.0545C92.4993 21.7025 91.7553 21.5265 90.8913 21.5265C89.9792 21.5265 89.1792 21.7105 88.4912 22.0785C87.8192 22.4465 87.2913 22.9665 86.9072 23.6385C86.5233 24.2945 86.3312 25.0785 86.3312 25.9905C86.3312 26.9985 86.5553 27.8705 87.0033 28.6065C87.4673 29.3425 88.1152 29.9105 88.9473 30.3105C89.7952 30.6945 90.7952 30.8865 91.9473 30.8865C92.9873 30.8865 94.0513 30.7265 95.1393 30.4065C96.2273 30.0705 97.1873 29.6065 98.0193 29.0145V31.2705C97.1873 31.9105 96.1712 32.4145 94.9713 32.7825C93.7873 33.1505 92.5793 33.3345 91.3472 33.3345Z" fill="#F5F1F8"/>
<path d="M114.794 28.8705C114.794 29.7825 114.538 30.5745 114.026 31.2465C113.514 31.9185 112.738 32.4385 111.698 32.8065C110.658 33.1585 109.354 33.3345 107.786 33.3345C106.17 33.3345 104.77 33.1345 103.586 32.7345C102.402 32.3185 101.482 31.7425 100.826 31.0065C100.186 30.2545 99.8423 29.3905 99.7943 28.4145H102.962C103.058 28.9265 103.314 29.3825 103.73 29.7825C104.162 30.1665 104.722 30.4625 105.41 30.6705C106.114 30.8785 106.914 30.9825 107.81 30.9825C109.106 30.9825 110.082 30.8305 110.738 30.5265C111.394 30.2065 111.722 29.7265 111.722 29.0865C111.722 28.6545 111.498 28.3265 111.05 28.1025C110.618 27.8785 109.794 27.7105 108.578 27.5985L105.914 27.3585C104.474 27.2305 103.338 26.9745 102.506 26.5905C101.674 26.1905 101.082 25.7105 100.73 25.1505C100.378 24.5745 100.202 23.9665 100.202 23.3265C100.202 22.3985 100.49 21.6225 101.066 20.9985C101.642 20.3745 102.442 19.9025 103.466 19.5825C104.49 19.2465 105.682 19.0785 107.042 19.0785C108.45 19.0785 109.706 19.2785 110.81 19.6785C111.914 20.0625 112.794 20.6065 113.45 21.3105C114.106 21.9985 114.474 22.7985 114.554 23.7105H111.386C111.322 23.3425 111.13 22.9905 110.81 22.6545C110.506 22.3025 110.034 22.0145 109.394 21.7905C108.77 21.5505 107.93 21.4305 106.874 21.4305C105.754 21.4305 104.874 21.5745 104.234 21.8625C103.61 22.1505 103.298 22.5745 103.298 23.1345C103.298 23.4865 103.49 23.7905 103.874 24.0465C104.258 24.2865 104.97 24.4545 106.01 24.5505L109.442 24.8625C110.818 24.9905 111.89 25.2385 112.658 25.6065C113.442 25.9585 113.994 26.4145 114.314 26.9745C114.634 27.5345 114.794 28.1665 114.794 28.8705Z" fill="#F5F1F8"/>
<path d="M117.084 19.3185L118.644 19.6065L120.204 19.3185V32.9985H117.084V19.3185ZM118.644 17.6145C118.052 17.6145 117.564 17.4545 117.18 17.1345C116.796 16.7985 116.604 16.3665 116.604 15.8385C116.604 15.3105 116.796 14.8865 117.18 14.5665C117.564 14.2305 118.052 14.0625 118.644 14.0625C119.252 14.0625 119.74 14.2305 120.108 14.5665C120.492 14.8865 120.684 15.3105 120.684 15.8385C120.684 16.3665 120.492 16.7985 120.108 17.1345C119.74 17.4545 119.252 17.6145 118.644 17.6145Z" fill="#F5F1F8"/>
<path d="M135.602 29.6625V27.2625L135.722 26.8305V24.2145L135.602 23.7345V19.4145H138.722V29.3745C138.722 31.1185 138.354 32.5745 137.618 33.7425C136.882 34.9265 135.874 35.8145 134.594 36.4065C133.314 36.9985 131.842 37.2945 130.178 37.2945C128.962 37.2945 127.842 37.1345 126.818 36.8145C125.794 36.4945 124.802 36.0065 123.842 35.3505V32.7585C124.818 33.5265 125.826 34.0625 126.866 34.3665C127.906 34.6865 128.946 34.8465 129.986 34.8465C131.81 34.8465 133.202 34.3985 134.162 33.5025C135.122 32.6065 135.602 31.3265 135.602 29.6625ZM129.074 31.9425C127.826 31.9425 126.706 31.6785 125.714 31.1505C124.722 30.6065 123.938 29.8545 123.362 28.8945C122.786 27.9345 122.498 26.8065 122.498 25.5105C122.498 24.2145 122.786 23.0865 123.362 22.1265C123.938 21.1665 124.722 20.4225 125.714 19.8945C126.706 19.3505 127.826 19.0785 129.074 19.0785C130.002 19.0785 130.858 19.2225 131.642 19.5105C132.442 19.7985 133.154 20.1825 133.778 20.6625C134.418 21.1265 134.954 21.6465 135.386 22.2225C135.834 22.7825 136.178 23.3585 136.418 23.9505C136.658 24.5265 136.778 25.0545 136.778 25.5345C136.778 26.1585 136.594 26.8465 136.226 27.5985C135.858 28.3345 135.33 29.0305 134.642 29.6865C133.97 30.3425 133.162 30.8865 132.218 31.3185C131.274 31.7345 130.226 31.9425 129.074 31.9425ZM130.034 29.6385C131.17 29.6385 132.21 29.3105 133.154 28.6545C134.114 27.9985 134.97 26.9505 135.722 25.5105C134.97 24.0385 134.114 22.9825 133.154 22.3425C132.21 21.6865 131.17 21.3585 130.034 21.3585C129.106 21.3585 128.314 21.5345 127.658 21.8865C127.002 22.2385 126.498 22.7265 126.146 23.3505C125.81 23.9745 125.642 24.6945 125.642 25.5105C125.642 26.3105 125.81 27.0225 126.146 27.6465C126.498 28.2705 127.002 28.7585 127.658 29.1105C128.314 29.4625 129.106 29.6385 130.034 29.6385Z" fill="#F5F1F8"/>
<path d="M141.729 14.5185H144.849V32.9985H141.729V14.5185ZM150.249 19.0785C151.529 19.0785 152.617 19.3345 153.513 19.8465C154.409 20.3585 155.089 21.0945 155.553 22.0545C156.033 22.9985 156.273 24.1425 156.273 25.4865V32.9985H153.153V25.9905C153.153 24.5665 152.817 23.4945 152.145 22.7745C151.489 22.0385 150.521 21.6705 149.241 21.6705C148.361 21.6705 147.585 21.8705 146.913 22.2705C146.257 22.6545 145.745 23.1985 145.377 23.9025C145.025 24.6065 144.849 25.4305 144.849 26.3745L143.745 25.7745C143.889 24.3665 144.257 23.1665 144.849 22.1745C145.441 21.1825 146.201 20.4225 147.129 19.8945C148.057 19.3505 149.097 19.0785 150.249 19.0785Z" fill="#F5F1F8"/>
<path d="M157.437 21.8145V20.3985L160.341 19.6545L161.637 15.8625H163.461V19.4145H169.773V21.8145H163.461V27.6945C163.461 28.8305 163.701 29.6305 164.181 30.0945C164.677 30.5425 165.477 30.7665 166.581 30.7665C167.285 30.7665 167.909 30.6945 168.453 30.5505C168.997 30.3905 169.517 30.1665 170.013 29.8785V32.4465C169.597 32.6545 169.005 32.8545 168.237 33.0465C167.485 33.2385 166.709 33.3345 165.909 33.3345C164.581 33.3345 163.509 33.1185 162.693 32.6865C161.877 32.2385 161.277 31.6305 160.893 30.8625C160.525 30.0785 160.341 29.1825 160.341 28.1745V21.8145H157.437Z" fill="#F5F1F8"/>
<mask id="mask0_1060_549" style="mask-type:alpha" maskUnits="userSpaceOnUse" x="1" y="1" width="45" height="45">
<path d="M44 3.00012L13.9999 3.00012C7.92481 3.00012 2.99995 7.92499 2.99995 14.0001L2.99994 44.0001L44 44.0001L44 3.00012Z" fill="#EA5455" stroke="#BDBDBD" stroke-width="3" stroke-miterlimit="10"/>
</mask>
<g mask="url(#mask0_1060_549)">
<path d="M25.4202 54.2215C9.09595 37.8973 0.498307 17.7628 0.897645 0.692264C17.9682 0.290403 38.1027 8.88808 54.4282 25.2135C46.4184 17.2037 33.4313 17.2037 25.4202 25.2148C17.4104 33.2246 17.4103 46.2117 25.4202 54.2215Z" fill="#0054F6" stroke="#F5F1F8" stroke-width="3" stroke-miterlimit="10"/>
<path d="M32.47 32.2685C28.3527 36.3857 28.3527 43.0602 32.47 47.1775L25.4211 54.2263C17.4112 46.2165 17.4113 33.2294 25.4211 25.2196C33.4322 17.2085 46.4192 17.2085 54.4291 25.2183L47.3802 32.2672C43.263 28.15 36.5872 28.1512 32.47 32.2685Z" stroke="#F5F1F8" stroke-width="3" stroke-miterlimit="10"/>
<path d="M31.0236 44.9306C33.8348 49.7998 40.0611 51.4681 44.9303 48.6569C49.7995 45.8456 51.4678 39.6194 48.6566 34.7502C45.8453 29.881 39.6191 28.2127 34.7499 31.0239C29.8807 33.8352 28.2123 40.0614 31.0236 44.9306Z" fill="#0054F6" stroke="#F5F1F8" stroke-width="3" stroke-miterlimit="10"/>
<path d="M47.3803 32.2671C43.2631 28.1499 36.5874 28.1511 32.4701 32.2684C28.3529 36.3856 28.3528 43.0601 32.4701 47.1774" stroke="#F5F1F8" stroke-width="3" stroke-miterlimit="10"/>
</g>
<path d="M45.4999 3L45.4999 1.5L43.9999 1.5L11 1.5C5.7533 1.5 1.50001 5.7533 1.50001 11L1.50001 35.9999C1.50001 41.2466 5.75331 45.4999 11 45.4999L43.9999 45.4999L45.4999 45.4999L45.4999 43.9999L45.4999 3Z" stroke="#F5F1F8" stroke-width="3" stroke-miterlimit="10"/>
<rect x="1.5" y="1.5" width="184" height="44" rx="9.5" stroke="#F5F1F8" stroke-width="3"/>
</svg>
