<svg width="128" height="128" viewBox="0 0 128 128" fill="none" xmlns="http://www.w3.org/2000/svg">
<path d="M64 115.199C53.8738 115.199 43.975 112.196 35.5553 106.57C27.1357 100.945 20.5734 92.9484 16.6982 83.593C12.8231 74.2376 11.8092 63.9432 13.7847 54.0116C15.7602 44.0799 20.6365 34.9571 27.7968 27.7968C34.9571 20.6365 44.0799 15.7602 54.0116 13.7847C63.9432 11.8092 74.2376 12.8231 83.593 16.6982C92.9484 20.5734 100.945 27.1357 106.57 35.5553C112.196 43.975 115.199 53.8738 115.199 64C115.199 77.5788 109.805 90.6015 100.203 100.203C90.6015 109.805 77.5788 115.199 64 115.199ZM64 0.00116609C55.5813 -0.0498062 47.2362 1.57077 39.4485 4.76896C31.6608 7.96715 24.5854 12.6793 18.6324 18.6324C12.6793 24.5854 7.96715 31.6608 4.76896 39.4485C1.57077 47.2362 -0.0498062 55.5813 0.00116609 64C-0.0498062 72.4187 1.57077 80.7637 4.76896 88.5515C7.96715 96.3392 12.6793 103.415 18.6324 109.368C24.5854 115.321 31.6608 120.033 39.4485 123.231C47.2362 126.429 55.5813 128.05 64 127.999C72.4187 128.05 80.7637 126.429 88.5515 123.231C96.3392 120.033 103.415 115.321 109.368 109.368C115.321 103.415 120.033 96.3392 123.231 88.5515C126.429 80.7637 128.05 72.4187 127.999 64C128.05 55.5813 126.429 47.2362 123.231 39.4485C120.033 31.6608 115.321 24.5854 109.368 18.6324C103.415 12.6793 96.3392 7.96715 88.5515 4.76896C80.7637 1.57077 72.4187 -0.0498062 64 0.00116609Z" fill="#0054F6"/>
<path d="M86.4081 74.7609C80.0089 74.7609 77.2572 71.0885 77.2572 63.7437C77.2572 56.3989 80.0089 52.7265 86.4081 52.7265C90.0557 52.7265 91.9115 54.5949 93.7033 58.2673L101.958 53.6929C100.239 50.6516 97.6775 48.1797 94.587 46.5781C91.4965 44.9766 88.01 44.3146 84.5524 44.6729C82.0152 44.6082 79.4916 45.0663 77.1367 46.0191C74.7817 46.9719 72.6451 48.3994 70.858 50.2138C68.9863 51.9602 67.5221 54.1023 66.5705 56.4862C65.619 58.8701 65.2037 61.4367 65.3546 64.0014C65.1911 66.7119 65.5966 69.4267 66.5449 71.9688C67.4931 74.5109 68.9627 76.8234 70.858 78.7554C72.6451 80.5698 74.7817 81.9972 77.1367 82.9501C79.4916 83.9029 82.0152 84.361 84.5524 84.2962C88.0565 84.2234 91.4852 83.2574 94.5179 81.4885C97.5507 79.7195 100.089 77.2054 101.894 74.181L93.7033 70.4442C92.9397 71.7389 91.8786 72.83 90.6091 73.6261C89.3397 74.4221 87.899 74.8996 86.4081 75.0186V74.7609ZM48.0127 74.7609C41.6134 74.7609 38.8618 71.0885 38.8618 63.7437C38.8618 56.3989 41.6134 52.7265 48.0127 52.7265C51.6602 52.7265 53.516 54.5949 55.3078 58.2673L63.5628 53.6929C61.8432 50.6516 59.282 48.1797 56.1915 46.5781C53.101 44.9766 49.6145 44.3146 46.1569 44.6729C43.6197 44.6082 41.0962 45.0663 38.7412 46.0191C36.3863 46.9719 34.2496 48.3994 32.4625 50.2138C30.5908 51.9602 29.1266 54.1023 28.1751 56.4862C27.2235 58.8701 26.8083 61.4367 26.9592 64.0014C26.7956 66.7119 27.2012 69.4267 28.1494 71.9688C29.0976 74.5109 30.5673 76.8234 32.4625 78.7554C34.2496 80.5698 36.3863 81.9972 38.7412 82.9501C41.0962 83.9029 43.6197 84.361 46.1569 84.2962C49.6611 84.2234 53.0897 83.2574 56.1225 81.4885C59.1552 79.7195 61.693 77.2054 63.4989 74.181L55.3078 70.4442C54.5442 71.7389 53.4831 72.83 52.2137 73.6261C50.9442 74.4221 49.5035 74.8996 48.0127 75.0186V74.7609Z" fill="#0054F6"/>
</svg>
