<svg width="28" height="29" viewBox="0 0 28 29" fill="none" xmlns="http://www.w3.org/2000/svg">
<path d="M16.9785 3.33226L24.0379 10.5799C24.4515 11.0044 24.7347 11.5441 24.8524 12.1322C24.9701 12.7204 24.917 13.331 24.6999 13.8885L21.1657 22.9584C20.9676 23.4662 20.6407 23.9103 20.219 24.2448C19.7972 24.5792 19.296 24.7918 18.7673 24.8604L11.1774 25.8344C10.9832 25.8574 10.777 25.8865 10.5648 25.9203L9.90127 26.0307L9.55458 26.0952L8.47416 26.3099L7.73445 26.471L6.62116 26.7286L5.19405 27.0784L2.87481 27.6858L1.90945 27.9527C1.66584 28.0214 1.4093 28.0263 1.16337 27.9669C0.917434 27.9074 0.689974 27.7856 0.501842 27.6125C0.31371 27.4394 0.170926 27.2205 0.0865816 26.9761C0.00223745 26.7316 -0.0209676 26.4693 0.0190936 26.2133L0.0699016 25.9893L0.510737 24.2836L0.905246 22.6761L1.24596 21.2113L1.49552 20.0685L1.65242 19.3077L1.86313 18.2002L1.98268 17.4992L2.07831 16.8427L3.06459 8.74381C3.13156 8.20093 3.33885 7.68633 3.66495 7.25343C3.99105 6.82053 4.42407 6.48509 4.91908 6.28192L13.7552 2.65428C14.2983 2.43135 14.8932 2.37691 15.4662 2.49769C16.0391 2.61848 16.565 2.90766 16.9785 3.33226ZM11.4345 11.9297C11.0569 12.3175 10.7875 12.802 10.6543 13.3329C10.521 13.8638 10.5288 14.4216 10.6768 14.9484C10.5679 15.0139 10.4675 15.0933 10.378 15.1846L4.31387 21.4091C4.27413 21.4505 4.24667 21.5027 4.23467 21.5594L4.10167 22.15L3.83568 23.2897L3.70716 23.8281C3.69447 23.8798 3.69507 23.934 3.7089 23.9854C3.72272 24.0368 3.7493 24.0837 3.78604 24.1214C3.82278 24.1591 3.86842 24.1864 3.91851 24.2006C3.96859 24.2147 4.0214 24.2154 4.07179 24.2023L5.14324 23.9339L6.28343 23.6609C6.3384 23.6479 6.38865 23.6191 6.42838 23.578L12.4925 17.3535C12.5814 17.2622 12.6588 17.1596 12.7226 17.0483C13.229 17.1977 13.7648 17.2071 14.2758 17.0754C14.7869 16.9438 15.2549 16.6758 15.6325 16.2987C16.0101 15.9216 16.2839 15.4487 16.4261 14.9279C16.5683 14.4072 16.5739 13.8571 16.4423 13.3335C16.3107 12.8098 16.0465 12.3312 15.6766 11.9461C15.3067 11.561 14.8442 11.2831 14.3359 11.1406C13.8277 10.9981 13.2918 10.996 12.7825 11.1346C12.2732 11.2732 11.8087 11.5475 11.436 11.9297H11.4345ZM18.3952 0.450081C18.6523 0.185755 18.9946 0.0268206 19.3577 0.00309825C19.7209 -0.0206241 20.08 0.092496 20.3677 0.321234L20.5082 0.450081L26.8473 6.95683C27.1181 7.23223 27.2762 7.60347 27.2891 7.99458C27.302 8.38569 27.1688 8.76708 26.9168 9.06068C26.6647 9.35429 26.3129 9.53791 25.9333 9.57396C25.5536 9.61001 25.175 9.49576 24.8747 9.2546L24.7342 9.12575L18.3952 2.619C18.115 2.33135 17.9577 1.94127 17.9577 1.53454C17.9577 1.12781 18.115 0.737727 18.3952 0.450081Z" fill="#0054F6"/>
</svg>
