<svg width="230" height="230" viewBox="0 0 230 230" fill="none" xmlns="http://www.w3.org/2000/svg">
<g clip-path="url(#clip0_1368_3)">
<path d="M114.395 137.425C100.189 137.425 88.3988 125.925 88.0537 111.78C87.9962 108.445 90.5843 105.743 93.9201 105.628C97.1409 105.513 99.9591 108.157 100.017 111.492C100.189 119.14 106.631 125.407 114.338 125.407C122.045 125.407 128.601 119.025 128.601 111.147C128.601 103.27 122.217 96.83 114.338 96.83C110.139 96.83 106.228 98.67 103.525 101.832C101.397 104.362 97.6011 104.65 95.0704 102.522C92.5398 100.395 92.2522 96.6 94.3803 94.07C99.384 88.205 106.631 84.8125 114.338 84.8125C128.831 84.8125 140.622 96.6 140.622 111.147C140.622 125.695 128.831 137.425 114.338 137.425H114.395Z" fill="#05050D"/>
<path d="M67.0026 66.1234L58.6055 57.6134C72.2364 44.2159 90.1809 36.0509 109.218 34.6709C125.035 33.5209 140.621 37.0284 154.367 44.7334L148.5 55.1984C136.825 48.6434 123.539 45.7109 110.081 46.6309C93.9193 47.7809 78.6205 54.7384 67.0601 66.1234H67.0026Z" fill="#05050D"/>
<path d="M114.971 195.557C73.1576 195.557 37.7287 163.184 34.6805 120.864C33.5302 104.994 37.0386 89.2392 44.8605 75.3242C46.4709 72.4492 50.1518 71.4142 53.0276 73.0242C55.9033 74.6342 56.9385 78.3142 55.3281 81.1892C48.6565 93.0342 45.6657 106.432 46.6435 119.944C49.4041 157.607 82.2449 186.069 120.032 183.309C157.704 180.549 186.173 147.659 183.413 109.997C182.262 94.5292 176.166 80.2692 165.698 68.8267C163.455 66.4117 163.628 62.6167 166.101 60.3742C168.574 58.1317 172.37 58.3042 174.555 60.7767C186.864 74.2317 194.053 90.9642 195.376 109.134C198.596 153.409 165.181 192.049 120.895 195.269C118.939 195.442 116.926 195.499 114.971 195.499V195.557Z" fill="#05050D"/>
<path d="M161.27 74.7479C156.957 74.7479 152.816 73.1954 149.537 70.3779C145.914 67.2154 143.728 62.8454 143.383 58.0729C143.038 53.3004 144.591 48.6429 147.697 45.0204C150.86 41.3979 155.231 39.2129 160.005 38.8679C169.897 38.1204 178.525 45.5954 179.272 55.4854C179.617 60.2579 178.064 64.9154 174.959 68.5379C171.795 72.1604 167.424 74.3454 162.651 74.6904C162.19 74.6904 161.788 74.6904 161.328 74.6904L161.27 74.7479ZM161.27 50.7704C161.27 50.7704 160.983 50.7704 160.81 50.7704C159.2 50.8854 157.762 51.6329 156.727 52.8404C155.691 54.0479 155.174 55.6004 155.289 57.2104C155.404 58.8204 156.151 60.2579 157.359 61.2929C158.567 62.3279 160.12 62.9029 161.73 62.7304C163.341 62.6154 164.779 61.8679 165.814 60.6604C166.849 59.4529 167.367 57.9004 167.252 56.2904C167.022 53.1279 164.376 50.7129 161.27 50.7129V50.7704Z" fill="#05050D"/>
<path d="M114.857 229.999C87.2503 229.999 60.9087 220.225 39.8584 201.997C16.5651 181.93 2.5316 153.984 0.288537 123.394C-1.55192 98.0945 4.77466 73.4845 18.6356 52.267C20.4761 49.507 24.157 48.702 26.9177 50.542C29.6784 52.3245 30.4836 56.062 28.6431 58.822C16.22 77.797 10.5836 99.877 12.194 122.532C14.207 149.959 26.7452 174.972 47.5654 192.97C68.3856 210.967 94.9572 219.707 122.392 217.752C144.592 216.142 165.24 207.632 182.149 193.142C184.68 190.957 188.476 191.302 190.604 193.775C192.789 196.305 192.444 200.099 189.971 202.227C171.106 218.384 148.043 227.93 123.312 229.712C120.436 229.942 117.618 229.999 114.8 229.999H114.857Z" fill="#05050D"/>
<path d="M207.168 183.826L197.563 176.696C212.345 156.801 219.534 132.249 217.751 107.581C215.738 80.1539 203.2 55.0839 182.38 37.0864C161.559 19.0889 135.045 10.2914 107.553 12.3039C83.0524 14.0289 60.0466 24.4939 42.6773 41.8014L34.2227 33.2914C53.605 13.9714 79.3139 2.24145 106.691 0.286446C137.346 -1.95605 166.966 7.87645 190.202 28.0014C213.437 48.0689 227.471 76.0139 229.714 106.661C231.727 134.204 223.733 161.574 207.226 183.826H207.168Z" fill="#05050D"/>
<path d="M195.204 207.861C190.89 207.861 186.749 206.308 183.471 203.491C179.847 200.328 177.662 195.958 177.317 191.186C176.972 186.413 178.525 181.756 181.63 178.133C184.794 174.511 189.165 172.326 193.939 171.981C198.712 171.636 203.371 173.188 206.994 176.293C210.618 179.456 212.803 183.826 213.148 188.598C213.493 193.371 211.941 198.028 208.835 201.651C205.671 205.273 201.3 207.458 196.527 207.803C196.067 207.803 195.664 207.803 195.204 207.803V207.861ZM195.204 183.883C195.204 183.883 194.916 183.883 194.744 183.883C193.133 183.998 191.695 184.746 190.66 185.953C189.625 187.161 189.107 188.713 189.222 190.323C189.337 191.933 190.085 193.371 191.293 194.406C192.501 195.441 194.054 195.958 195.664 195.843C197.274 195.728 198.712 194.981 199.747 193.773C200.783 192.566 201.3 191.013 201.185 189.403C201.07 187.793 200.323 186.356 199.115 185.321C198.022 184.401 196.642 183.883 195.204 183.883Z" fill="#05050D"/>
<path d="M106.402 166.402C106.057 166.402 105.654 166.402 105.309 166.287C82.016 161.917 64.5892 142.425 62.8637 118.792C62.2886 110.685 63.6114 102.52 66.6597 95.1597C67.925 92.1122 71.4334 90.6747 74.4816 91.9397C77.5299 93.2047 78.9678 96.7122 77.7025 99.7597C75.2868 105.51 74.3091 111.605 74.8267 117.93C76.1496 136.1 89.6079 151.165 107.495 154.5C110.773 155.132 112.901 158.237 112.269 161.515C111.751 164.39 109.22 166.402 106.402 166.402Z" fill="#05050D"/>
<path d="M132.054 164.392L128.143 153.064C145.34 147.142 156.44 130.294 155.117 112.124C154.312 101.372 149.423 91.5966 141.314 84.5241C133.204 77.5091 122.794 74.1166 112.096 74.8641C102.492 75.6116 93.8068 79.4641 87.0201 86.1341L78.623 77.5666C87.3652 69.0566 98.9256 63.8241 111.176 62.9041C125.095 61.8691 138.611 66.3541 149.136 75.4966C159.661 84.6391 166.045 97.3466 167.08 111.262C168.806 134.837 154.369 156.687 132.054 164.392Z" fill="#05050D"/>
<path d="M118.307 179.113C113.994 179.113 109.853 177.56 106.574 174.743C102.951 171.58 100.765 167.21 100.42 162.438C100.075 157.665 101.628 153.008 104.734 149.385C107.897 145.763 112.268 143.578 117.042 143.233C121.873 142.83 126.474 144.44 130.098 147.545C133.721 150.65 135.907 155.078 136.252 159.85C136.597 164.623 135.044 169.28 131.938 172.903C128.775 176.525 124.404 178.71 119.63 179.055C119.17 179.055 118.767 179.055 118.307 179.055V179.113ZM118.307 155.135C118.307 155.135 118.02 155.135 117.847 155.135C116.237 155.25 114.799 155.998 113.764 157.205C112.728 158.413 112.211 159.965 112.326 161.575C112.441 163.185 113.189 164.623 114.396 165.658C115.604 166.693 117.157 167.21 118.767 167.095C120.378 166.98 121.816 166.233 122.851 165.025C123.886 163.818 124.404 162.265 124.289 160.655C124.174 159.045 123.426 157.608 122.218 156.573C121.126 155.653 119.745 155.135 118.307 155.135Z" fill="#05050D"/>
<path d="M114.166 119.197C112.613 119.197 111.117 118.622 109.91 117.415L34.1631 41.6874C31.805 39.3299 31.805 35.5349 34.1631 33.2349C36.5212 30.9349 40.3171 30.8774 42.6177 33.2349L118.364 108.962C120.722 111.32 120.722 115.115 118.364 117.415C117.214 118.565 115.661 119.197 114.108 119.197H114.166Z" fill="#05050D"/>
</g>
<defs>
<clipPath id="clip0_1368_3">
<rect width="230" height="230" fill="white"/>
</clipPath>
</defs>
</svg>
