<svg width="28" height="24" viewBox="0 0 28 24" fill="none" xmlns="http://www.w3.org/2000/svg">
<path fill-rule="evenodd" clip-rule="evenodd" d="M0.484387 0.294069C0.693342 0.138474 0.951417 0.0394701 1.226 0.00956862C1.50057 -0.0203328 1.77933 0.0202109 2.02704 0.126076L27.2246 10.9257C27.4575 11.0252 27.6535 11.1784 27.7905 11.3681C27.9274 11.5578 28 11.7765 28 11.9996C28 12.2227 27.9274 12.4414 27.7905 12.6311C27.6535 12.8208 27.4575 12.9741 27.2246 13.0736L2.02704 23.8732C1.77935 23.9794 1.50047 24.0203 1.22568 23.9906C0.950888 23.9609 0.692541 23.862 0.483328 23.7065C0.274116 23.5509 0.12344 23.3456 0.0503685 23.1166C-0.0227034 22.8876 -0.0148873 22.6452 0.0728274 22.42L3.65928 13.1996H11.2003C11.5716 13.1996 11.9277 13.0731 12.1902 12.8481C12.4527 12.6231 12.6002 12.3179 12.6002 11.9996C12.6002 11.6814 12.4527 11.3762 12.1902 11.1511C11.9277 10.9261 11.5716 10.7997 11.2003 10.7997H3.65928L0.0714273 1.57922C-0.0158355 1.35412 -0.0233132 1.1119 0.0499386 0.883166C0.12319 0.654427 0.275285 0.449429 0.484387 0.294069Z" fill="#F5F1F8"/>
</svg>
