<svg width="104" height="47" viewBox="0 0 104 47" fill="none" xmlns="http://www.w3.org/2000/svg">
<path d="M0 32C0 14.3269 14.3269 0 32 0H104V15C104 32.6731 89.6731 47 72 47H0V32Z" fill="#F5F1F8"/>
<path fill-rule="evenodd" clip-rule="evenodd" d="M55.4844 12.2941C55.6933 12.1385 55.9514 12.0395 56.226 12.0096C56.5006 11.9797 56.7793 12.0202 57.027 12.1261L82.2246 22.9257C82.4575 23.0252 82.6535 23.1784 82.7905 23.3681C82.9274 23.5578 83 23.7765 83 23.9996C83 24.2227 82.9274 24.4414 82.7905 24.6311C82.6535 24.8208 82.4575 24.9741 82.2246 25.0736L57.027 35.8732C56.7794 35.9794 56.5005 36.0203 56.2257 35.9906C55.9509 35.9609 55.6925 35.862 55.4833 35.7065C55.2741 35.5509 55.1234 35.3456 55.0504 35.1166C54.9773 34.8876 54.9851 34.6452 55.0728 34.42L58.6593 25.1996H66.2003C66.5716 25.1996 66.9277 25.0731 67.1902 24.8481C67.4527 24.6231 67.6002 24.3179 67.6002 23.9996C67.6002 23.6814 67.4527 23.3762 67.1902 23.1511C66.9277 22.9261 66.5716 22.7997 66.2003 22.7997H58.6593L55.0714 13.5792C54.9842 13.3541 54.9767 13.1119 55.0499 12.8832C55.1232 12.6544 55.2753 12.4494 55.4844 12.2941Z" fill="#0054F6"/>
<rect x="38" y="16" width="16" height="2" rx="1" fill="#0054F6"/>
<rect x="25" y="16" width="10" height="2" rx="1" fill="#0054F6"/>
<rect x="35" y="23" width="17" height="2" rx="1" fill="#0054F6"/>
<rect x="49" y="30" width="12" height="2" rx="1" fill="#0054F6"/>
<rect x="27" y="30" width="19" height="2" rx="1" fill="#0054F6"/>
</svg>
