<svg width="31" height="34" viewBox="0 0 31 34" fill="none" xmlns="http://www.w3.org/2000/svg">
<path d="M15.4439 22.2988C13.9704 22.2988 12.5573 21.6897 11.5154 20.6055C10.4735 19.5213 9.88815 18.0509 9.88815 16.5176C9.88815 14.9844 10.4735 13.5139 11.5154 12.4297C12.5573 11.3455 13.9704 10.7365 15.4439 10.7365C16.9174 10.7365 18.3305 11.3455 19.3724 12.4297C20.4143 13.5139 20.9996 14.9844 20.9996 16.5176C20.9996 18.0509 20.4143 19.5213 19.3724 20.6055C18.3305 21.6897 16.9174 22.2988 15.4439 22.2988ZM27.2379 18.1198C27.3014 17.5913 27.349 17.0627 27.349 16.5176C27.349 15.9725 27.3014 15.4275 27.2379 14.8659L30.5872 12.1735C30.8888 11.9257 30.9682 11.4797 30.7777 11.1164L27.603 5.40126C27.4125 5.03788 26.9839 4.88922 26.6347 5.03788L22.6822 6.68964C21.8568 6.04545 20.9996 5.48385 19.9996 5.07091L19.4123 0.693743C19.38 0.499194 19.2826 0.322802 19.1374 0.195822C18.9921 0.0688418 18.8083 -0.000528191 18.6186 3.02845e-06H12.2692C11.8723 3.02845e-06 11.539 0.29732 11.4755 0.693743L10.8882 5.07091C9.88815 5.48385 9.03098 6.04545 8.20555 6.68964L4.25305 5.03788C3.90383 4.88922 3.47524 5.03788 3.28476 5.40126L0.110054 11.1164C-0.0963022 11.4797 -0.00106083 11.9257 0.300536 12.1735L3.64985 14.8659C3.58636 15.4275 3.53874 15.9725 3.53874 16.5176C3.53874 17.0627 3.58636 17.5913 3.64985 18.1198L0.300536 20.8617C-0.00106083 21.1095 -0.0963022 21.5555 0.110054 21.9189L3.28476 27.634C3.47524 27.9974 3.90383 28.1295 4.25305 27.9974L8.20555 26.3291C9.03098 26.9898 9.88815 27.5514 10.8882 27.9643L11.4755 32.3415C11.539 32.7379 11.8723 33.0352 12.2692 33.0352H18.6186C19.0154 33.0352 19.3488 32.7379 19.4123 32.3415L19.9996 27.9643C20.9996 27.5349 21.8568 26.9898 22.6822 26.3291L26.6347 27.9974C26.9839 28.1295 27.4125 27.9974 27.603 27.634L30.7777 21.9189C30.9682 21.5555 30.8888 21.1095 30.5872 20.8617L27.2379 18.1198Z" fill="#0054F6"/>
</svg>
