<svg width="125" height="118" viewBox="0 0 125 118" fill="none" xmlns="http://www.w3.org/2000/svg">
<path d="M23.2031 2.73438C23.9366 1.87683 24.8472 1.18836 25.8721 0.716337C26.8971 0.244309 28.0122 -7.42239e-05 29.1406 1.691e-08H95.8594C96.9878 -7.42239e-05 98.1029 0.244309 99.1279 0.716337C100.153 1.18836 101.063 1.87683 101.797 2.73438L122.18 26.5156C124 28.6393 125 31.3438 125 34.1406V36.1328C125 39.9998 123.793 43.7703 121.545 46.9174C119.298 50.0644 116.124 52.4307 112.466 53.6855C108.808 54.9403 104.85 55.021 101.144 53.9162C97.4384 52.8114 94.1704 50.5763 91.7969 47.5234C90.0636 49.756 87.8424 51.5623 85.3034 52.8041C82.7644 54.0458 79.9748 54.6901 77.1484 54.6875C74.3219 54.6907 71.5322 54.0467 68.9931 52.8049C66.454 51.5631 64.2329 49.7564 62.5 47.5234C60.7671 49.7564 58.546 51.5631 56.0069 52.8049C53.4678 54.0467 50.6781 54.6907 47.8516 54.6875C45.0251 54.6907 42.2353 54.0467 39.6962 52.8049C37.1571 51.5631 34.936 49.7564 33.2031 47.5234C30.8296 50.5763 27.5616 52.8114 23.8558 53.9162C20.1499 55.021 16.1915 54.9403 12.5338 53.6855C8.87604 52.4307 5.70174 50.0644 3.45455 46.9174C1.20736 43.7703 -0.000426551 39.9998 1.13004e-07 36.1328V34.1406C9.84964e-05 31.3438 1.00044 28.6393 2.82031 26.5156L23.2109 2.72656L23.2031 2.73438ZM37.1094 36.1328C37.1094 38.9818 38.2411 41.7141 40.2557 43.7287C42.2702 45.7432 45.0026 46.875 47.8516 46.875C50.7006 46.875 53.4329 45.7432 55.4474 43.7287C57.462 41.7141 58.5938 38.9818 58.5938 36.1328C58.5938 35.0968 59.0053 34.1032 59.7379 33.3707C60.4704 32.6381 61.464 32.2266 62.5 32.2266C63.536 32.2266 64.5296 32.6381 65.2621 33.3707C65.9947 34.1032 66.4062 35.0968 66.4062 36.1328C66.4062 38.9818 67.538 41.7141 69.5526 43.7287C71.5671 45.7432 74.2994 46.875 77.1484 46.875C79.9974 46.875 82.7298 45.7432 84.7443 43.7287C86.7589 41.7141 87.8906 38.9818 87.8906 36.1328C87.8906 35.0968 88.3022 34.1032 89.0347 33.3707C89.7673 32.6381 90.7609 32.2266 91.7969 32.2266C92.8329 32.2266 93.8264 32.6381 94.559 33.3707C95.2916 34.1032 95.7031 35.0968 95.7031 36.1328C95.7031 38.9818 96.8349 41.7141 98.8494 43.7287C100.864 45.7432 103.596 46.875 106.445 46.875C109.294 46.875 112.027 45.7432 114.041 43.7287C116.056 41.7141 117.188 38.9818 117.188 36.1328V34.1406C117.188 33.2096 116.855 32.3091 116.25 31.6016L95.8594 7.8125H29.1406L8.75 31.6016C8.1449 32.3091 7.81243 33.2096 7.8125 34.1406V36.1328C7.8125 38.9818 8.94426 41.7141 10.9588 43.7287C12.9734 45.7432 15.7057 46.875 18.5547 46.875C21.4037 46.875 24.136 45.7432 26.1506 43.7287C28.1651 41.7141 29.2969 38.9818 29.2969 36.1328C29.2969 35.0968 29.7084 34.1032 30.441 33.3707C31.1736 32.6381 32.1671 32.2266 33.2031 32.2266C34.2391 32.2266 35.2327 32.6381 35.9653 33.3707C36.6978 34.1032 37.1094 35.0968 37.1094 36.1328ZM11.7188 58.5938C12.7548 58.5938 13.7483 59.0053 14.4809 59.7379C15.2135 60.4704 15.625 61.464 15.625 62.5V109.375H23.4375V70.3125C23.4375 68.2405 24.2606 66.2534 25.7257 64.7882C27.1909 63.3231 29.178 62.5 31.25 62.5H54.6875C56.7595 62.5 58.7466 63.3231 60.2118 64.7882C61.6769 66.2534 62.5 68.2405 62.5 70.3125V109.375H109.375V62.5C109.375 61.464 109.787 60.4704 110.519 59.7379C111.252 59.0053 112.245 58.5938 113.281 58.5938C114.317 58.5938 115.311 59.0053 116.043 59.7379C116.776 60.4704 117.188 61.464 117.188 62.5V109.375H121.094C122.13 109.375 123.123 109.787 123.856 110.519C124.588 111.252 125 112.245 125 113.281C125 114.317 124.588 115.311 123.856 116.043C123.123 116.776 122.13 117.188 121.094 117.188H3.90625C2.87025 117.188 1.87668 116.776 1.14411 116.043C0.41155 115.311 1.13004e-07 114.317 1.13004e-07 113.281C1.13004e-07 112.245 0.41155 111.252 1.14411 110.519C1.87668 109.787 2.87025 109.375 3.90625 109.375H7.8125V62.5C7.8125 61.464 8.22405 60.4704 8.95661 59.7379C9.68918 59.0053 10.6827 58.5938 11.7188 58.5938ZM31.25 109.375H54.6875V70.3125H31.25V109.375ZM70.3125 70.3125C70.3125 68.2405 71.1356 66.2534 72.6007 64.7882C74.0659 63.3231 76.053 62.5 78.125 62.5H93.75C95.822 62.5 97.8091 63.3231 99.2743 64.7882C100.739 66.2534 101.562 68.2405 101.562 70.3125V93.75C101.562 95.822 100.739 97.8091 99.2743 99.2743C97.8091 100.739 95.822 101.562 93.75 101.562H78.125C76.053 101.562 74.0659 100.739 72.6007 99.2743C71.1356 97.8091 70.3125 95.822 70.3125 93.75V70.3125ZM93.75 70.3125H78.125V93.75H93.75V70.3125Z" fill="#0054F6"/>
</svg>
