<svg width="35" height="33" viewBox="0 0 35 33" fill="none" xmlns="http://www.w3.org/2000/svg">
<path d="M5.47659 1.71441V5.14324H1.82553V1.71441H5.47659ZM0 0L0 6.85765H7.30213V0L0 0ZM14.6043 4.28603V7.71485H10.9532V4.28603H14.6043ZM9.12766 2.57162V9.42927H16.4298V2.57162H9.12766ZM5.47659 12.0009V15.4297H1.82553V12.0009H5.47659ZM0 10.2865L0 17.1441H7.30213V10.2865H0Z" fill="#0054F6"/>
<path d="M21.3588 4.28717V12.8592H11.5009V21.4313H1.64307V32.8607H34.5026V4.28717H21.3588ZM14.7869 15.7166H21.3588V21.4313H14.7869V15.7166ZM11.5009 30.0034H4.92902V24.2886H11.5009V30.0034ZM21.3588 30.0034H14.7869V24.2886H21.3588V30.0034ZM31.2167 30.0034H24.6448V24.2886H31.2167V30.0034ZM31.2167 21.4313H24.6448V15.7166H31.2167V21.4313ZM24.6448 12.8592V7.14452H31.2167V12.8592H24.6448Z" fill="#0054F6"/>
</svg>
