<svg width="22" height="22" viewBox="0 0 22 22" fill="none" xmlns="http://www.w3.org/2000/svg">
<path d="M11 0C4.928 0 0 4.928 0 11C0 17.072 4.928 22 11 22C17.072 22 22 17.072 22 11C22 4.928 17.072 0 11 0ZM16.104 7.48C15.939 9.218 15.224 13.442 14.861 15.389C14.707 16.214 14.399 16.489 14.113 16.522C13.475 16.577 12.991 16.104 12.375 15.697C11.407 15.059 10.857 14.663 9.922 14.047C8.833 13.332 9.537 12.936 10.164 12.298C10.329 12.133 13.145 9.57 13.2 9.339C13.2076 9.30401 13.2066 9.26769 13.197 9.23318C13.1875 9.19868 13.1696 9.16704 13.145 9.141C13.079 9.086 12.991 9.108 12.914 9.119C12.815 9.141 11.275 10.164 8.272 12.188C7.832 12.485 7.436 12.639 7.084 12.628C6.688 12.617 5.94 12.408 5.379 12.221C4.686 12.001 4.147 11.88 4.191 11.495C4.213 11.297 4.488 11.099 5.005 10.89C8.217 9.493 10.351 8.569 11.418 8.129C14.476 6.853 15.103 6.633 15.521 6.633C15.609 6.633 15.818 6.655 15.95 6.765C16.06 6.853 16.093 6.974 16.104 7.062C16.093 7.128 16.115 7.326 16.104 7.48Z" fill="#F5F1F8"/>
</svg>
