<svg width="30" height="30" viewBox="0 0 30 30" fill="none" xmlns="http://www.w3.org/2000/svg">
<path d="M15 0C6.72 0 0 6.72 0 15C0 23.28 6.72 30 15 30C23.28 30 30 23.28 30 15C30 6.72 23.28 0 15 0ZM21.96 10.2C21.735 12.57 20.76 18.33 20.265 20.985C20.055 22.11 19.635 22.485 19.245 22.53C18.375 22.605 17.715 21.96 16.875 21.405C15.555 20.535 14.805 19.995 13.53 19.155C12.045 18.18 13.005 17.64 13.86 16.77C14.085 16.545 17.925 13.05 18 12.735C18.0104 12.6873 18.009 12.6378 17.996 12.5907C17.9829 12.5437 17.9585 12.5005 17.925 12.465C17.835 12.39 17.715 12.42 17.61 12.435C17.475 12.465 15.375 13.86 11.28 16.62C10.68 17.025 10.14 17.235 9.66 17.22C9.12 17.205 8.1 16.92 7.335 16.665C6.39 16.365 5.655 16.2 5.715 15.675C5.745 15.405 6.12 15.135 6.825 14.85C11.205 12.945 14.115 11.685 15.57 11.085C19.74 9.345 20.595 9.045 21.165 9.045C21.285 9.045 21.57 9.075 21.75 9.225C21.9 9.345 21.945 9.51 21.96 9.63C21.945 9.72 21.975 9.99 21.96 10.2Z" fill="#F5F1F8"/>
</svg>
