<svg width="76" height="69" viewBox="0 0 76 69" fill="none" xmlns="http://www.w3.org/2000/svg">
<path d="M75.7131 65.0047L56.7127 26.3648C56.4872 25.9064 56.1407 25.521 55.7119 25.2515C55.2832 24.9821 54.7891 24.8394 54.2851 24.8394C53.781 24.8394 53.2869 24.9821 52.8582 25.2515C52.4294 25.521 52.0829 25.9064 51.8574 26.3648L44.4914 41.3481C38.7176 41.018 33.1624 38.9901 28.5005 35.5107C33.9702 29.5714 37.2843 21.913 37.8955 13.8H46.1437C46.8636 13.8 47.554 13.5092 48.0631 12.9916C48.5721 12.474 48.8581 11.772 48.8581 11.04C48.8581 10.308 48.5721 9.60595 48.0631 9.08836C47.554 8.57076 46.8636 8.27997 46.1437 8.27997H27.1434V2.75999C27.1434 2.028 26.8574 1.32598 26.3484 0.808382C25.8393 0.290784 25.1489 0 24.429 0C23.7092 0 23.0187 0.290784 22.5097 0.808382C22.0007 1.32598 21.7147 2.028 21.7147 2.75999V8.27997H2.71434C1.99445 8.27997 1.30405 8.57076 0.795011 9.08836C0.285974 9.60595 0 10.308 0 11.04C0 11.772 0.285974 12.474 0.795011 12.9916C1.30405 13.5092 1.99445 13.8 2.71434 13.8H32.4465C31.842 20.5642 29.0182 26.9252 24.429 31.8606C21.5693 28.7925 19.3734 25.1493 17.9825 21.1657C17.8681 20.8181 17.6868 20.4972 17.4492 20.2216C17.2115 19.9461 16.9223 19.7214 16.5983 19.5608C16.2744 19.4001 15.9222 19.3066 15.5623 19.2859C15.2025 19.2651 14.8421 19.3174 14.5024 19.4397C14.1626 19.5621 13.8502 19.752 13.5834 19.9984C13.3166 20.2448 13.1007 20.5428 12.9484 20.875C12.7961 21.2071 12.7103 21.5668 12.6962 21.933C12.682 22.2993 12.7397 22.6647 12.866 23.008C14.4853 27.665 17.0361 31.9303 20.3575 35.5349C15.2436 39.356 9.06055 41.4114 2.71434 41.3999C1.99445 41.3999 1.30405 41.6906 0.795011 42.2082C0.285974 42.7258 0 43.4279 0 44.1599C0 44.8919 0.285974 45.5939 0.795011 46.1115C1.30405 46.6291 1.99445 46.9198 2.71434 46.9198C10.5879 46.9288 18.2358 44.2458 24.429 39.3023C29.4831 43.3176 35.5163 45.859 41.8822 46.6542L32.8571 65.0047C32.5349 65.6594 32.4817 66.4174 32.7092 67.1119C32.9367 67.8065 33.4262 68.3807 34.07 68.7082C34.7139 69.0358 35.4593 69.0899 36.1424 68.8586C36.8255 68.6273 37.3902 68.1296 37.7123 67.4749L42.3912 57.9598H66.1789L70.8578 67.4749C71.0834 67.9334 71.4303 68.319 71.8594 68.5883C72.2884 68.8577 72.7828 69.0001 73.2871 68.9998C73.7497 68.9995 74.2046 68.879 74.6086 68.6498C75.0126 68.4205 75.3522 68.0901 75.5952 67.6898C75.8383 67.2895 75.9767 66.8327 75.9973 66.3628C76.0179 65.8929 75.9201 65.4254 75.7131 65.0047ZM45.1055 52.4398L54.2868 33.7719L63.4646 52.4398H45.1055Z" fill="#F5F1F8"/>
</svg>
