<svg width="125" height="112" viewBox="0 0 125 112" fill="none" xmlns="http://www.w3.org/2000/svg">
<path d="M111.111 0C114.795 0 118.327 1.46329 120.932 4.06796C123.537 6.67263 125 10.2053 125 13.8889V97.2222C125 100.906 123.537 104.438 120.932 107.043C118.327 109.648 114.795 111.111 111.111 111.111H13.8889C10.2053 111.111 6.67263 109.648 4.06796 107.043C1.46329 104.438 0 100.906 0 97.2222V13.8889C0 10.2053 1.46329 6.67263 4.06796 4.06796C6.67263 1.46329 10.2053 0 13.8889 0H111.111ZM111.111 41.6667H13.8889V90.2778C13.8891 91.9787 14.5136 93.6204 15.6439 94.8915C16.7741 96.1625 18.3316 96.9746 20.0208 97.1736L20.8333 97.2222H104.167C105.868 97.222 107.509 96.5975 108.78 95.4672C110.051 94.337 110.863 92.7795 111.062 91.0903L111.111 90.2778V41.6667ZM20.8333 13.8889C18.9916 13.8889 17.2252 14.6205 15.9229 15.9229C14.6205 17.2252 13.8889 18.9916 13.8889 20.8333C13.8889 22.6751 14.6205 24.4415 15.9229 25.7438C17.2252 27.0461 18.9916 27.7778 20.8333 27.7778C22.6751 27.7778 24.4415 27.0461 25.7438 25.7438C27.0461 24.4415 27.7778 22.6751 27.7778 20.8333C27.7778 18.9916 27.0461 17.2252 25.7438 15.9229C24.4415 14.6205 22.6751 13.8889 20.8333 13.8889ZM41.6667 13.8889C39.8249 13.8889 38.0585 14.6205 36.7562 15.9229C35.4539 17.2252 34.7222 18.9916 34.7222 20.8333C34.7222 22.6751 35.4539 24.4415 36.7562 25.7438C38.0585 27.0461 39.8249 27.7778 41.6667 27.7778C43.5084 27.7778 45.2748 27.0461 46.5771 25.7438C47.8795 24.4415 48.6111 22.6751 48.6111 20.8333C48.6111 18.9916 47.8795 17.2252 46.5771 15.9229C45.2748 14.6205 43.5084 13.8889 41.6667 13.8889ZM62.5 13.8889C60.6582 13.8889 58.8919 14.6205 57.5895 15.9229C56.2872 17.2252 55.5556 18.9916 55.5556 20.8333C55.5556 22.6751 56.2872 24.4415 57.5895 25.7438C58.8919 27.0461 60.6582 27.7778 62.5 27.7778C64.3418 27.7778 66.1081 27.0461 67.4105 25.7438C68.7128 24.4415 69.4444 22.6751 69.4444 20.8333C69.4444 18.9916 68.7128 17.2252 67.4105 15.9229C66.1081 14.6205 64.3418 13.8889 62.5 13.8889Z" fill="#0054F6"/>
</svg>
